<svg xmlns="http://www.w3.org/2000/svg" xmlns:xlink="http://www.w3.org/1999/xlink" width="110" zoomAndPan="magnify" viewBox="0 0 82.5 82.499998" height="110" preserveAspectRatio="xMidYMid meet" version="1.2"><defs><clipPath id="20dd3e2c9b"><path d="M 0 0 L 82.003906 0 L 82.003906 82.003906 L 0 82.003906 Z M 0 0 "/></clipPath><clipPath id="0a2331f8ad"><path d="M 29 42 L 59.757812 42 L 59.757812 73.800781 L 29 73.800781 Z M 29 42 "/></clipPath><clipPath id="80a1087b7b"><path d="M 33 8.199219 L 55 8.199219 L 55 38 L 33 38 Z M 33 8.199219 "/></clipPath><clipPath id="ff5d126b09"><path d="M 36 8.199219 L 55 8.199219 L 55 38 L 36 38 Z M 36 8.199219 "/></clipPath><clipPath id="cb6acbe987"><path d="M 30 65 L 32 65 L 32 73.800781 L 30 73.800781 Z M 30 65 "/></clipPath><clipPath id="0588763fe9"><path d="M 33 68 L 41 68 L 41 73.800781 L 33 73.800781 Z M 33 68 "/></clipPath><clipPath id="930e116dbb"><path d="M 56 49 L 59.757812 49 L 59.757812 73.800781 L 56 73.800781 Z M 56 49 "/></clipPath><clipPath id="1d7e0e1a9c"><path d="M 43 42 L 59.757812 42 L 59.757812 52 L 43 52 Z M 43 42 "/></clipPath></defs><g id="86672fcda5"><g clip-rule="nonzero" clip-path="url(#20dd3e2c9b)"><path style=" stroke:none;fill-rule:nonzero;fill:#ffffff;fill-opacity:1;" d="M 0 0 L 82.003906 0 L 82.003906 82.003906 L 0 82.003906 Z M 0 0 "/><path style=" stroke:none;fill-rule:nonzero;fill:#ffffff;fill-opacity:1;" d="M 0 0 L 82.003906 0 L 82.003906 82.003906 L 0 82.003906 Z M 0 0 "/></g><g clip-rule="nonzero" clip-path="url(#0a2331f8ad)"><path style=" stroke:none;fill-rule:evenodd;fill:#988b34;fill-opacity:1;" d="M 29.773438 61.515625 C 29.773438 61.515625 30.277344 63.082031 30.648438 63.773438 C 31.019531 64.464844 31.699219 65.363281 31.699219 65.363281 C 31.699219 65.363281 31.457031 66.539062 31.5625 66.804688 C 31.667969 67.070312 31.78125 67.480469 31.679688 67.902344 C 31.574219 68.324219 31.101562 73.269531 31.101562 73.269531 C 31.101562 73.269531 38.53125 73.5625 40.402344 73.523438 C 42.269531 73.480469 52.714844 73.226562 53.605469 73.242188 C 54.5 73.257812 56.277344 73.175781 56.277344 73.175781 C 56.277344 73.175781 56.191406 66.976562 56.710938 64.679688 C 57.234375 62.386719 58.378906 54.9375 58.378906 54.9375 C 58.378906 54.9375 59.144531 53.417969 59.347656 52.195312 C 59.554688 50.972656 59.527344 47.707031 59.085938 46.574219 C 58.636719 45.441406 57.507812 44.253906 55.546875 43.570312 C 53.589844 42.890625 52.558594 42.714844 52.558594 42.714844 C 52.558594 42.714844 51.777344 42.152344 51.15625 42.570312 C 51.15625 42.570312 48.410156 45.363281 47.289062 46.03125 C 46.167969 46.703125 43.53125 47.789062 43.53125 47.789062 L 32.691406 46.039062 Z M 29.773438 61.515625 "/></g><g clip-rule="nonzero" clip-path="url(#80a1087b7b)"><path style=" stroke:none;fill-rule:evenodd;fill:#988b34;fill-opacity:1;" d="M 33.65625 23.355469 C 33.65625 23.355469 34.007812 20.492188 34.722656 18.957031 C 35.433594 17.417969 36.976562 15.433594 36.976562 15.433594 C 36.976562 15.433594 36.375 14.742188 36.527344 14.472656 C 36.675781 14.203125 37.335938 14.136719 37.335938 14.136719 C 37.335938 14.136719 38.722656 12.519531 39.277344 11.648438 C 39.828125 10.78125 40.695312 10.441406 40.695312 10.441406 C 40.695312 10.441406 40.929688 9.652344 41.234375 9.394531 C 41.542969 9.140625 42.296875 9.472656 42.296875 9.472656 C 42.296875 9.472656 43.035156 8.6875 43.59375 8.441406 C 44.15625 8.195312 48.265625 10.988281 49.371094 11.917969 C 50.472656 12.847656 53.097656 17.632812 53.519531 19.269531 C 53.945312 20.90625 55.15625 27.050781 54.554688 30.058594 C 53.949219 33.070312 52.382812 34.882812 51.886719 35.308594 C 51.390625 35.730469 50.800781 35.632812 50.800781 35.632812 C 50.800781 35.632812 50.113281 36.464844 49.496094 36.582031 C 48.878906 36.703125 46.449219 37.085938 46.449219 37.085938 C 46.449219 37.085938 41.585938 37.636719 40.132812 37.28125 C 38.683594 36.925781 37.09375 36.246094 37.09375 36.246094 L 34.394531 31.96875 Z M 33.65625 23.355469 "/></g><path style=" stroke:none;fill-rule:evenodd;fill:#000000;fill-opacity:1;" d="M 38.726562 18.941406 C 38.726562 18.941406 39.570312 17.40625 40.226562 17.003906 C 40.886719 16.605469 42.628906 16.34375 43.539062 16.328125 C 44.453125 16.308594 45.050781 16.722656 45.050781 16.722656 L 46.839844 18.660156 C 46.839844 18.660156 45.722656 18.757812 45.292969 18.640625 C 44.863281 18.519531 44.15625 17.9375 44.15625 17.9375 C 44.15625 17.9375 42.964844 18.09375 42.632812 17.660156 L 42.199219 17.046875 L 40.894531 18.097656 L 41.195312 17.230469 Z M 38.726562 18.941406 "/><path style=" stroke:none;fill-rule:evenodd;fill:#ffd7b9;fill-opacity:1;" d="M 36.839844 44.6875 C 36.839844 44.6875 35.34375 43.964844 35.476562 43.652344 C 35.609375 43.34375 36.417969 43.25 37.117188 43.25 C 37.820312 43.25 39.949219 44.609375 40.332031 44.886719 C 40.71875 45.167969 41.429688 44.816406 42.367188 45.492188 C 43.304688 46.167969 43.320312 46.9375 43.375 47.3125 C 43.429688 47.683594 43.382812 48.097656 43.382812 48.097656 L 48.449219 58.671875 C 48.449219 58.671875 50.273438 55.359375 51.359375 52.878906 C 52.445312 50.394531 53.722656 49.402344 55.792969 49.464844 C 57.867188 49.527344 59.035156 51.226562 57.929688 55.179688 C 56.824219 59.128906 54.285156 66.140625 52.265625 68.367188 C 50.25 70.589844 49.417969 71.632812 47.253906 70.386719 C 45.09375 69.144531 43.261719 65.03125 42.476562 60.4375 L 39.851562 49.296875 C 39.851562 49.296875 38.644531 48.65625 37.820312 48.695312 C 36.992188 48.734375 34.394531 48.507812 33.371094 47.765625 L 33.226562 47.660156 C 33.226562 47.660156 31.40625 58.003906 30.621094 60.035156 C 29.839844 62.070312 27.535156 63.96875 25.769531 63.714844 C 24 63.464844 22.496094 60.042969 23.792969 56.816406 C 25.085938 53.589844 29.054688 45.027344 29.054688 45.027344 C 29.054688 45.027344 28.507812 44.644531 28.46875 44.316406 C 28.425781 43.988281 29.332031 44.015625 29.332031 44.015625 L 30.738281 38.011719 C 30.738281 38.011719 29.84375 37.664062 29.910156 36.113281 C 29.976562 34.5625 29.34375 33.597656 29.1875 33.035156 C 29.035156 32.472656 29.703125 31.523438 29.703125 31.523438 C 29.703125 31.523438 29.597656 31.207031 29.074219 31.050781 C 28.550781 30.898438 26.363281 29.722656 25.847656 29.039062 C 25.328125 28.355469 25.6875 27.921875 25.929688 28.046875 C 26.167969 28.175781 27.378906 29.03125 28.136719 29.34375 C 28.894531 29.65625 29.84375 29.878906 29.84375 29.878906 C 29.84375 29.878906 27.941406 27.71875 27.804688 26.578125 C 27.664062 25.433594 27.761719 25.441406 28.367188 25.863281 C 28.96875 26.285156 32.347656 30.265625 32.347656 30.265625 C 32.347656 30.265625 30.339844 25.734375 30.226562 24.632812 C 30.117188 23.527344 30.367188 23.40625 30.6875 23.394531 C 31.011719 23.382812 31.773438 25.832031 32.136719 26.519531 C 32.496094 27.207031 33.445312 28.507812 33.445312 28.507812 C 33.445312 28.507812 32.96875 24.074219 33.433594 23.511719 C 33.902344 22.953125 34.210938 23.242188 34.363281 23.894531 C 34.515625 24.542969 34.992188 28.597656 34.992188 28.597656 C 34.992188 28.597656 35.234375 28.785156 35.320312 29.054688 C 35.402344 29.324219 35.082031 29.558594 35.082031 29.558594 L 35.296875 31.398438 C 35.296875 31.398438 35.589844 29.546875 36.195312 28.910156 C 36.800781 28.273438 37.125 28.320312 37.25 28.585938 C 37.375 28.855469 36.710938 30.664062 36.710938 30.664062 L 36.445312 33.320312 L 33.878906 44.109375 L 36.839844 44.691406 Z M 36.839844 44.6875 "/><path style=" stroke:none;fill-rule:evenodd;fill:#ffffff;fill-opacity:1;" d="M 31.429688 34.328125 L 31.066406 44.300781 C 31.066406 44.300781 32.230469 45.125 33.238281 45.023438 C 34.25 44.921875 36.851562 44.773438 36.851562 44.773438 C 36.851562 44.773438 35.738281 44.199219 35.53125 43.875 C 35.324219 43.550781 36 43.230469 36.328125 43.199219 C 36.660156 43.164062 37.0625 43.230469 37.0625 43.230469 L 37.125 33.707031 C 37.125 33.707031 36.054688 33.179688 35.378906 33.058594 C 35.378906 33.058594 35.296875 31.371094 34.96875 31.265625 C 34.640625 31.160156 34.445312 31.078125 34.445312 31.078125 L 34.367188 29.664062 C 34.367188 29.664062 35.300781 29.585938 35.300781 29.199219 C 35.296875 28.808594 34.722656 28.582031 34.28125 28.636719 C 33.835938 28.691406 31.898438 29.019531 31.898438 29.019531 C 31.898438 29.019531 31.835938 29.558594 32.109375 29.609375 C 32.386719 29.664062 33.78125 29.648438 33.78125 29.648438 L 33.789062 31.082031 C 33.789062 31.082031 32.933594 31.347656 33.140625 33.167969 L 31.816406 33.894531 Z M 31.429688 34.328125 "/><path style=" stroke:none;fill-rule:evenodd;fill:#ffd7b9;fill-opacity:1;" d="M 36.609375 28.671875 C 36.609375 28.671875 36.660156 23.566406 37.414062 21.539062 C 38.160156 19.511719 38.820312 18.914062 38.820312 18.914062 L 41.339844 17.164062 L 40.75 18.28125 L 42.117188 17.046875 C 42.117188 17.046875 42.890625 17.867188 43.195312 17.972656 C 43.5 18.078125 44.199219 17.886719 44.199219 17.886719 C 44.199219 17.886719 44.820312 18.484375 45.617188 18.613281 C 46.414062 18.738281 46.773438 18.617188 46.773438 18.617188 C 46.773438 18.617188 48.816406 20.769531 49.539062 23.171875 C 50.257812 25.570312 50.703125 27.730469 50.5625 29.113281 C 50.417969 30.492188 49.703125 32.835938 48.601562 34.082031 C 47.503906 35.328125 46.894531 35.972656 46.894531 35.972656 C 46.894531 35.972656 46.65625 38.363281 47.230469 39.597656 C 47.804688 40.832031 49.324219 41.742188 49.773438 41.953125 C 50.222656 42.164062 51.183594 42.464844 51.183594 42.464844 C 51.183594 42.464844 49.769531 44.113281 48.953125 44.757812 C 48.132812 45.402344 45.632812 46.992188 44.683594 47.34375 C 43.734375 47.691406 43.371094 47.71875 43.371094 47.71875 C 43.371094 47.71875 43.480469 46.007812 42.449219 45.539062 C 41.421875 45.070312 40.527344 44.949219 40.527344 44.949219 L 38.132812 43.613281 C 38.132812 43.613281 37.441406 42.597656 37.636719 42.300781 C 37.636719 42.300781 38.351562 42.007812 38.902344 41.691406 C 39.453125 41.375 41.164062 39.613281 41.164062 39.613281 L 41.023438 36.597656 C 41.023438 36.597656 38.6875 35.308594 37.746094 33.507812 C 36.808594 31.707031 36.609375 28.671875 36.609375 28.671875 Z M 36.609375 28.671875 "/><path style=" stroke:none;fill-rule:evenodd;fill:#070000;fill-opacity:1;" d="M 36.714844 28.542969 C 36.714844 28.542969 36.789062 26.167969 37.128906 23.914062 C 37.296875 22.789062 37.53125 21.695312 37.859375 20.945312 C 38.339844 19.839844 38.78125 19.042969 39.214844 18.445312 C 39.648438 17.84375 40.070312 17.445312 40.519531 17.125 C 40.976562 16.796875 41.714844 16.585938 42.496094 16.519531 C 43.203125 16.457031 43.945312 16.515625 44.554688 16.714844 C 44.738281 16.859375 45.957031 17.832031 47.167969 19.34375 C 47.878906 20.234375 48.59375 21.316406 49.082031 22.527344 C 49.691406 24.019531 50.046875 25.570312 50.203125 27 C 50.40625 28.855469 50.261719 30.503906 49.863281 31.53125 C 49.503906 32.449219 48.707031 33.632812 47.761719 34.703125 C 46.847656 35.734375 45.792969 36.660156 44.839844 37.136719 C 44.066406 37.523438 43.152344 37.398438 42.253906 37.035156 C 40.945312 36.507812 39.667969 35.472656 38.863281 34.65625 C 38.285156 34.070312 37.867188 33.441406 37.566406 32.839844 C 37.152344 32.011719 36.960938 31.242188 36.882812 30.71875 C 36.871094 30.625 36.785156 30.5625 36.691406 30.574219 C 36.601562 30.589844 36.535156 30.675781 36.550781 30.765625 C 36.628906 31.316406 36.824219 32.125 37.253906 32.996094 C 37.566406 33.628906 38.003906 34.292969 38.605469 34.910156 C 39.433594 35.757812 40.753906 36.835938 42.109375 37.386719 C 43.117188 37.796875 44.144531 37.914062 45.015625 37.480469 C 46.003906 36.988281 47.101562 36.03125 48.054688 34.960938 C 49.035156 33.851562 49.855469 32.625 50.230469 31.671875 C 50.648438 30.605469 50.808594 28.890625 50.59375 26.957031 C 50.4375 25.496094 50.070312 23.90625 49.449219 22.378906 C 48.941406 21.132812 48.210938 20.019531 47.472656 19.097656 C 46.125 17.414062 44.769531 16.382812 44.769531 16.382812 C 44.75 16.371094 44.730469 16.363281 44.710938 16.355469 C 44.050781 16.128906 43.238281 16.0625 42.460938 16.132812 C 41.601562 16.207031 40.796875 16.449219 40.292969 16.808594 C 39.8125 17.152344 39.359375 17.578125 38.898438 18.21875 C 38.453125 18.835938 38 19.652344 37.507812 20.792969 C 37.171875 21.566406 36.933594 22.699219 36.761719 23.859375 C 36.429688 26.136719 36.363281 28.53125 36.363281 28.53125 C 36.359375 28.625 36.4375 28.707031 36.535156 28.710938 C 36.628906 28.710938 36.707031 28.636719 36.714844 28.542969 Z M 36.714844 28.542969 "/><path style=" stroke:none;fill-rule:evenodd;fill:#070000;fill-opacity:1;" d="M 46.757812 13.433594 C 46.757812 13.433594 47.160156 13.980469 47.714844 14.785156 C 48.121094 15.375 48.617188 16.101562 49.082031 16.859375 C 49.324219 17.25 49.558594 17.652344 49.777344 18.046875 C 50.007812 18.472656 50.21875 18.882812 50.382812 19.273438 C 50.414062 19.351562 50.503906 19.386719 50.582031 19.359375 C 50.660156 19.328125 50.699219 19.238281 50.667969 19.160156 C 50.519531 18.753906 50.320312 18.320312 50.09375 17.878906 C 49.886719 17.472656 49.648438 17.066406 49.40625 16.664062 C 48.9375 15.898438 48.441406 15.160156 48.019531 14.574219 C 47.441406 13.773438 47.003906 13.246094 47.003906 13.246094 C 46.949219 13.179688 46.855469 13.164062 46.785156 13.21875 C 46.722656 13.269531 46.707031 13.367188 46.757812 13.433594 Z M 46.757812 13.433594 "/><path style=" stroke:none;fill-rule:evenodd;fill:#070000;fill-opacity:1;" d="M 37.238281 15.628906 C 37.238281 15.628906 37.820312 15.660156 38.664062 15.730469 C 39.277344 15.78125 40.03125 15.851562 40.789062 15.964844 C 41.183594 16.023438 41.574219 16.09375 41.953125 16.167969 C 42.359375 16.25 42.75 16.339844 43.09375 16.453125 C 43.183594 16.484375 43.285156 16.433594 43.3125 16.34375 C 43.34375 16.253906 43.296875 16.15625 43.207031 16.125 C 42.851562 16 42.453125 15.882812 42.035156 15.792969 C 41.652344 15.707031 41.25 15.636719 40.84375 15.578125 C 40.078125 15.464844 39.316406 15.386719 38.691406 15.34375 C 37.84375 15.285156 37.25 15.277344 37.25 15.277344 C 37.152344 15.277344 37.070312 15.351562 37.066406 15.449219 C 37.0625 15.546875 37.140625 15.625 37.238281 15.628906 Z M 37.238281 15.628906 "/><g clip-rule="nonzero" clip-path="url(#ff5d126b09)"><path style=" stroke:none;fill-rule:evenodd;fill:#070000;fill-opacity:1;" d="M 43.453125 8.601562 C 43.464844 8.601562 43.511719 8.601562 43.546875 8.609375 C 43.617188 8.617188 43.703125 8.644531 43.808594 8.679688 C 44.21875 8.816406 44.84375 9.125 45.570312 9.550781 C 46.503906 10.097656 47.605469 10.835938 48.648438 11.664062 C 49.976562 12.71875 51.375 14.652344 52.464844 17.148438 C 53.292969 19.042969 53.9375 21.257812 54.246094 23.660156 C 54.589844 26.375 54.574219 28.234375 54.335938 29.6875 C 54.085938 31.222656 53.59375 32.304688 53.023438 33.464844 C 52.640625 34.25 52.226562 34.734375 51.847656 35.03125 C 51.21875 35.523438 50.71875 35.472656 50.71875 35.472656 C 50.648438 35.460938 50.582031 35.496094 50.546875 35.554688 C 50.546875 35.554688 50.382812 35.824219 50.097656 36.0625 C 49.941406 36.191406 49.75 36.3125 49.519531 36.363281 C 49.28125 36.417969 48.890625 36.480469 48.484375 36.542969 C 47.722656 36.652344 46.90625 36.75 46.90625 36.75 C 46.8125 36.761719 46.75 36.839844 46.761719 36.929688 C 46.769531 37.019531 46.851562 37.085938 46.945312 37.074219 C 46.945312 37.074219 47.765625 36.980469 48.53125 36.871094 C 48.945312 36.8125 49.347656 36.75 49.597656 36.695312 C 49.878906 36.632812 50.121094 36.488281 50.320312 36.324219 C 50.546875 36.140625 50.707031 35.933594 50.785156 35.820312 C 51 35.816406 51.492188 35.753906 52.066406 35.308594 C 52.476562 34.992188 52.929688 34.472656 53.351562 33.621094 C 53.933594 32.433594 54.445312 31.324219 54.703125 29.746094 C 54.945312 28.265625 54.964844 26.375 54.617188 23.613281 C 54.304688 21.171875 53.648438 18.921875 52.808594 17.003906 C 51.6875 14.4375 50.246094 12.457031 48.882812 11.375 C 47.605469 10.367188 46.25 9.488281 45.203125 8.925781 C 44.613281 8.605469 44.125 8.386719 43.796875 8.292969 C 43.554688 8.222656 43.382812 8.230469 43.292969 8.273438 C 43.148438 8.347656 42.953125 8.515625 42.765625 8.707031 C 42.546875 8.925781 42.335938 9.175781 42.21875 9.316406 C 42.097656 9.265625 41.898438 9.199219 41.707031 9.164062 C 41.507812 9.128906 41.3125 9.136719 41.179688 9.207031 C 41.070312 9.261719 40.957031 9.378906 40.859375 9.53125 C 40.699219 9.78125 40.566406 10.109375 40.507812 10.261719 C 40.402344 10.304688 40.207031 10.398438 39.972656 10.578125 C 39.765625 10.738281 39.519531 10.972656 39.269531 11.3125 C 38.863281 11.867188 38.425781 12.523438 38.046875 13.050781 C 37.84375 13.335938 37.65625 13.585938 37.503906 13.753906 C 37.34375 13.929688 37.230469 14.019531 37.125 14.074219 C 36.957031 14.15625 36.8125 14.15625 36.601562 14.253906 C 36.410156 14.335938 36.351562 14.511719 36.394531 14.734375 C 36.460938 15.066406 36.785156 15.511719 36.785156 15.511719 C 36.839844 15.585938 36.945312 15.601562 37.019531 15.546875 C 37.09375 15.492188 37.109375 15.390625 37.054688 15.316406 C 37.054688 15.316406 36.886719 15.085938 36.785156 14.851562 C 36.753906 14.777344 36.726562 14.699219 36.71875 14.628906 C 36.714844 14.601562 36.710938 14.570312 36.734375 14.558594 C 36.957031 14.464844 37.101562 14.460938 37.277344 14.375 C 37.410156 14.3125 37.558594 14.203125 37.757812 13.980469 C 37.917969 13.804688 38.113281 13.546875 38.332031 13.25 C 38.707031 12.726562 39.148438 12.070312 39.554688 11.519531 C 39.734375 11.277344 39.914062 11.089844 40.074219 10.953125 C 40.429688 10.648438 40.691406 10.574219 40.691406 10.574219 C 40.753906 10.558594 40.796875 10.515625 40.816406 10.460938 C 40.816406 10.460938 40.9375 10.109375 41.101562 9.824219 C 41.179688 9.691406 41.253906 9.570312 41.34375 9.527344 C 41.417969 9.488281 41.53125 9.5 41.640625 9.519531 C 41.917969 9.570312 42.203125 9.699219 42.203125 9.699219 C 42.277344 9.734375 42.367188 9.714844 42.421875 9.648438 C 42.421875 9.648438 42.71875 9.273438 43.027344 8.960938 C 43.179688 8.808594 43.332031 8.667969 43.453125 8.601562 Z M 43.453125 8.601562 "/></g><path style=" stroke:none;fill-rule:evenodd;fill:#070000;fill-opacity:1;" d="M 46.835938 35.78125 C 46.835938 35.78125 46.714844 36.441406 46.691406 37.285156 C 46.683594 37.605469 46.6875 37.949219 46.714844 38.296875 C 46.765625 38.894531 46.890625 39.496094 47.136719 39.960938 C 47.421875 40.507812 47.90625 40.984375 48.453125 41.378906 C 48.847656 41.667969 49.273438 41.914062 49.683594 42.109375 C 50.203125 42.359375 50.6875 42.53125 51.007812 42.625 C 51.089844 42.652344 51.183594 42.609375 51.210938 42.527344 C 51.238281 42.441406 51.191406 42.351562 51.109375 42.324219 C 50.808594 42.21875 50.351562 42.023438 49.855469 41.765625 C 49.472656 41.570312 49.0625 41.335938 48.683594 41.0625 C 48.191406 40.699219 47.746094 40.273438 47.484375 39.777344 C 47.261719 39.355469 47.15625 38.808594 47.101562 38.261719 C 47.074219 37.929688 47.066406 37.597656 47.070312 37.292969 C 47.074219 36.476562 47.164062 35.832031 47.164062 35.832031 C 47.179688 35.742188 47.113281 35.660156 47.027344 35.644531 C 46.933594 35.628906 46.847656 35.691406 46.835938 35.78125 Z M 46.835938 35.78125 "/><path style=" stroke:none;fill-rule:evenodd;fill:#070000;fill-opacity:1;" d="M 25.847656 28.289062 C 25.84375 28.289062 25.84375 28.289062 25.84375 28.289062 C 25.839844 28.28125 25.847656 28.277344 25.859375 28.28125 L 25.847656 28.289062 C 25.847656 28.289062 25.855469 28.285156 25.859375 28.28125 C 25.878906 28.28125 25.902344 28.292969 25.921875 28.296875 C 26.039062 28.328125 26.191406 28.398438 26.359375 28.488281 C 26.855469 28.753906 27.492188 29.179688 27.898438 29.339844 C 28.316406 29.507812 28.824219 29.734375 29.246094 29.882812 C 29.5 29.972656 29.730469 30.035156 29.886719 30.046875 C 29.972656 30.050781 30.042969 29.992188 30.050781 29.90625 C 30.058594 29.824219 29.992188 29.75 29.910156 29.746094 C 29.773438 29.734375 29.578125 29.671875 29.355469 29.585938 C 28.941406 29.429688 28.441406 29.195312 28.027344 29.019531 C 27.570312 28.828125 26.8125 28.285156 26.304688 28.046875 C 26.152344 27.976562 26.019531 27.933594 25.917969 27.921875 C 25.800781 27.90625 25.710938 27.929688 25.644531 27.976562 C 25.53125 28.054688 25.453125 28.144531 25.410156 28.25 C 25.375 28.347656 25.371094 28.46875 25.425781 28.621094 C 25.5 28.832031 25.714844 29.144531 26.164062 29.621094 C 26.460938 29.9375 26.914062 30.238281 27.394531 30.492188 C 27.664062 30.632812 27.9375 30.761719 28.199219 30.875 C 28.753906 31.113281 29.238281 31.269531 29.390625 31.316406 L 29.570312 31.625 C 29.605469 31.691406 29.6875 31.714844 29.753906 31.679688 C 29.816406 31.640625 29.839844 31.5625 29.808594 31.496094 L 29.613281 31.125 C 29.597656 31.09375 29.566406 31.070312 29.535156 31.058594 C 29.535156 31.058594 28.992188 30.859375 28.339844 30.554688 C 28.09375 30.441406 27.828125 30.3125 27.570312 30.171875 C 27.128906 29.929688 26.710938 29.65625 26.4375 29.363281 C 26.128906 29.035156 25.9375 28.796875 25.835938 28.617188 C 25.773438 28.511719 25.746094 28.441406 25.761719 28.382812 C 25.773438 28.34375 25.808594 28.316406 25.84375 28.289062 Z M 25.847656 28.289062 "/><path style=" stroke:none;fill-rule:evenodd;fill:#070000;fill-opacity:1;" d="M 27.84375 25.699219 C 27.847656 25.703125 27.859375 25.710938 27.867188 25.710938 C 27.886719 25.71875 27.90625 25.730469 27.925781 25.742188 C 28.023438 25.804688 28.132812 25.910156 28.257812 26.035156 C 28.609375 26.40625 29.042969 26.972656 29.496094 27.46875 C 30.042969 28.054688 30.722656 28.851562 31.316406 29.484375 C 31.636719 29.824219 31.933594 30.117188 32.167969 30.308594 C 32.234375 30.363281 32.332031 30.355469 32.386719 30.289062 C 32.441406 30.222656 32.433594 30.121094 32.367188 30.066406 C 32.148438 29.878906 31.867188 29.589844 31.566406 29.253906 C 30.984375 28.613281 30.308594 27.808594 29.773438 27.21875 C 29.222656 26.625 28.703125 25.921875 28.324219 25.582031 C 28.167969 25.445312 28.027344 25.363281 27.914062 25.339844 C 27.792969 25.316406 27.691406 25.339844 27.601562 25.414062 C 27.511719 25.492188 27.457031 25.601562 27.4375 25.75 C 27.417969 25.910156 27.449219 26.128906 27.535156 26.386719 C 27.683594 26.839844 27.984375 27.445312 28.378906 28.132812 C 28.601562 28.527344 28.917969 28.949219 29.246094 29.339844 C 29.976562 30.210938 30.773438 30.941406 30.773438 30.941406 C 30.839844 31 30.9375 30.996094 30.996094 30.933594 C 31.054688 30.871094 31.050781 30.773438 30.992188 30.714844 C 30.992188 30.714844 30.226562 29.976562 29.523438 29.117188 C 29.210938 28.734375 28.910156 28.332031 28.699219 27.953125 C 28.390625 27.410156 28.136719 26.917969 27.980469 26.519531 C 27.871094 26.246094 27.804688 26.019531 27.804688 25.851562 C 27.804688 25.785156 27.808594 25.734375 27.84375 25.699219 Z M 27.84375 25.699219 C 27.835938 25.699219 27.832031 25.699219 27.832031 25.703125 C 27.832031 25.707031 27.835938 25.703125 27.84375 25.699219 Z M 27.84375 25.699219 "/><path style=" stroke:none;fill-rule:evenodd;fill:#070000;fill-opacity:1;" d="M 32.957031 29.898438 C 32.957031 29.898438 31.886719 30.179688 30.941406 30.589844 C 30.429688 30.8125 29.957031 31.074219 29.6875 31.339844 C 29.339844 31.691406 29.140625 32.066406 29.066406 32.417969 C 28.960938 32.90625 29.089844 33.355469 29.363281 33.652344 C 29.503906 33.800781 29.589844 34.117188 29.65625 34.5 C 29.789062 35.242188 29.828125 36.21875 29.875 36.804688 C 29.917969 37.265625 30.035156 37.605469 30.222656 37.832031 C 30.457031 38.117188 30.804688 38.238281 31.273438 38.1875 C 31.347656 38.179688 31.402344 38.113281 31.394531 38.039062 C 31.386719 37.964844 31.320312 37.910156 31.246094 37.917969 C 30.890625 37.949219 30.625 37.867188 30.453125 37.648438 C 30.296875 37.457031 30.214844 37.164062 30.1875 36.78125 C 30.140625 36.183594 30.105469 35.199219 29.976562 34.445312 C 29.894531 33.984375 29.769531 33.609375 29.601562 33.429688 C 29.390625 33.207031 29.304688 32.859375 29.382812 32.484375 C 29.449219 32.183594 29.617188 31.863281 29.917969 31.566406 C 30.164062 31.320312 30.597656 31.082031 31.066406 30.875 C 31.988281 30.460938 33.03125 30.160156 33.03125 30.160156 C 33.101562 30.136719 33.144531 30.0625 33.125 29.992188 C 33.105469 29.921875 33.03125 29.878906 32.957031 29.898438 Z M 32.957031 29.898438 "/><path style=" stroke:none;fill-rule:evenodd;fill:#070000;fill-opacity:1;" d="M 32.085938 29.730469 C 32.277344 29.761719 33.164062 29.773438 33.941406 29.742188 C 34.332031 29.726562 34.695312 29.699219 34.929688 29.664062 C 35.066406 29.644531 35.167969 29.617188 35.21875 29.589844 C 35.453125 29.464844 35.574219 29.097656 35.324219 28.808594 C 35.171875 28.636719 34.871094 28.484375 34.328125 28.503906 C 33.910156 28.519531 33.515625 28.550781 33.175781 28.59375 C 32.609375 28.664062 32.1875 28.75 32.042969 28.769531 C 31.765625 28.8125 31.652344 29.046875 31.679688 29.28125 C 31.707031 29.496094 31.859375 29.703125 32.089844 29.734375 L 32.089844 29.730469 Z M 32.125 29.464844 C 32.023438 29.449219 31.972656 29.34375 31.964844 29.25 C 31.957031 29.167969 31.988281 29.082031 32.085938 29.070312 C 32.246094 29.046875 32.761719 28.953125 33.4375 28.886719 C 33.714844 28.859375 34.019531 28.835938 34.335938 28.824219 C 34.652344 28.816406 34.863281 28.863281 34.996094 28.949219 C 35.175781 29.0625 35.175781 29.25 35.066406 29.308594 C 35.035156 29.324219 34.96875 29.335938 34.878906 29.347656 C 34.65625 29.382812 34.304688 29.40625 33.925781 29.425781 C 33.171875 29.46875 32.3125 29.488281 32.125 29.464844 Z M 32.125 29.464844 "/><path style=" stroke:none;fill-rule:evenodd;fill:#070000;fill-opacity:1;" d="M 33.667969 29.574219 C 33.667969 29.574219 33.648438 29.703125 33.636719 29.886719 C 33.621094 30.097656 33.613281 30.382812 33.613281 30.621094 C 33.613281 30.703125 33.617188 30.78125 33.621094 30.847656 C 33.632812 30.980469 33.644531 31.074219 33.65625 31.105469 C 33.675781 31.175781 33.75 31.21875 33.824219 31.199219 C 33.898438 31.179688 33.9375 31.105469 33.921875 31.03125 C 33.914062 31.003906 33.929688 30.898438 33.933594 30.757812 C 33.941406 30.542969 33.945312 30.261719 33.949219 30.03125 C 33.949219 29.964844 33.949219 29.90625 33.949219 29.851562 C 33.945312 29.691406 33.9375 29.582031 33.9375 29.582031 C 33.941406 29.507812 33.882812 29.445312 33.804688 29.441406 C 33.730469 29.441406 33.671875 29.5 33.667969 29.574219 Z M 33.667969 29.574219 "/><path style=" stroke:none;fill-rule:evenodd;fill:#070000;fill-opacity:1;" d="M 33.222656 33.183594 C 33.222656 33.183594 33.222656 32.644531 33.292969 32.152344 C 33.324219 31.910156 33.375 31.675781 33.460938 31.546875 C 33.585938 31.367188 33.789062 31.277344 34.015625 31.257812 C 34.238281 31.238281 34.480469 31.277344 34.714844 31.367188 C 34.945312 31.457031 35.0625 31.628906 35.121094 31.890625 C 35.195312 32.191406 35.203125 32.597656 35.1875 33.117188 C 35.183594 33.191406 35.242188 33.257812 35.316406 33.257812 C 35.394531 33.261719 35.457031 33.203125 35.460938 33.128906 C 35.496094 32.574219 35.503906 32.140625 35.433594 31.820312 C 35.351562 31.441406 35.164062 31.199219 34.832031 31.070312 C 34.480469 30.933594 34.117188 30.894531 33.808594 30.964844 C 33.554688 31.023438 33.339844 31.15625 33.199219 31.367188 C 33.089844 31.527344 33.015625 31.8125 32.980469 32.113281 C 32.921875 32.625 32.953125 33.191406 32.953125 33.191406 C 32.953125 33.269531 33.019531 33.324219 33.09375 33.324219 C 33.167969 33.320312 33.226562 33.257812 33.222656 33.183594 Z M 33.222656 33.183594 "/><path style=" stroke:none;fill-rule:evenodd;fill:#070000;fill-opacity:1;" d="M 34.242188 29.609375 C 34.242188 29.609375 34.230469 29.734375 34.226562 29.910156 C 34.222656 30.039062 34.222656 30.199219 34.226562 30.359375 C 34.226562 30.519531 34.226562 30.679688 34.234375 30.808594 C 34.242188 30.984375 34.257812 31.109375 34.257812 31.109375 C 34.257812 31.183594 34.320312 31.242188 34.394531 31.242188 C 34.472656 31.242188 34.53125 31.179688 34.53125 31.105469 L 34.550781 30.804688 C 34.554688 30.675781 34.550781 30.515625 34.546875 30.355469 C 34.546875 30.195312 34.546875 30.039062 34.539062 29.90625 C 34.53125 29.730469 34.515625 29.609375 34.515625 29.609375 C 34.515625 29.53125 34.453125 29.472656 34.378906 29.472656 C 34.304688 29.476562 34.242188 29.535156 34.242188 29.609375 Z M 34.242188 29.609375 "/><path style=" stroke:none;fill-rule:evenodd;fill:#070000;fill-opacity:1;" d="M 31.210938 44.453125 C 31.210938 44.453125 31.308594 41.914062 31.398438 39.371094 C 31.480469 37.058594 31.554688 34.746094 31.566406 34.351562 C 31.671875 34.242188 31.984375 33.933594 32.4375 33.664062 C 32.742188 33.488281 33.109375 33.328125 33.519531 33.261719 C 34.078125 33.167969 34.722656 33.183594 35.324219 33.285156 C 35.960938 33.390625 36.546875 33.589844 36.90625 33.867188 C 36.902344 34.292969 36.878906 36.402344 36.863281 38.515625 C 36.84375 40.875 36.832031 43.238281 36.832031 43.238281 C 36.832031 43.3125 36.894531 43.375 36.96875 43.375 C 37.042969 43.375 37.105469 43.316406 37.105469 43.242188 C 37.105469 43.242188 37.144531 40.878906 37.175781 38.515625 C 37.207031 36.15625 37.230469 33.792969 37.230469 33.792969 C 37.234375 33.746094 37.210938 33.703125 37.175781 33.671875 C 36.785156 33.335938 36.113281 33.089844 35.378906 32.964844 C 34.742188 32.859375 34.058594 32.847656 33.46875 32.941406 C 33.015625 33.015625 32.609375 33.191406 32.273438 33.386719 C 31.660156 33.75 31.285156 34.179688 31.285156 34.179688 C 31.261719 34.210938 31.246094 34.246094 31.246094 34.28125 C 31.246094 34.28125 31.160156 36.820312 31.082031 39.363281 C 31.007812 41.902344 30.9375 44.445312 30.9375 44.445312 C 30.9375 44.519531 30.992188 44.582031 31.066406 44.585938 C 31.144531 44.585938 31.207031 44.527344 31.210938 44.453125 Z M 31.210938 44.453125 "/><path style=" stroke:none;fill-rule:evenodd;fill:#070000;fill-opacity:1;" d="M 31.957031 28.972656 C 31.957031 28.972656 31.460938 27.886719 31.03125 26.800781 C 30.816406 26.265625 30.621094 25.730469 30.515625 25.328125 C 30.339844 24.667969 30.214844 24.214844 30.230469 23.910156 C 30.242188 23.730469 30.3125 23.621094 30.476562 23.554688 C 30.542969 23.527344 30.597656 23.550781 30.648438 23.59375 C 30.691406 23.632812 30.730469 23.6875 30.769531 23.75 C 30.980469 24.09375 31.128906 24.675781 31.3125 25.046875 C 31.519531 25.460938 31.738281 26.082031 31.972656 26.601562 C 32.089844 26.855469 32.210938 27.085938 32.335938 27.265625 C 32.457031 27.433594 32.59375 27.644531 32.730469 27.855469 C 33.023438 28.3125 33.296875 28.765625 33.296875 28.765625 C 33.335938 28.828125 33.417969 28.851562 33.484375 28.8125 C 33.550781 28.773438 33.570312 28.691406 33.535156 28.628906 C 33.535156 28.628906 33.265625 28.167969 32.980469 27.699219 C 32.847656 27.484375 32.707031 27.265625 32.589844 27.089844 C 32.476562 26.925781 32.371094 26.707031 32.265625 26.472656 C 32.027344 25.945312 31.808594 25.324219 31.601562 24.90625 C 31.480469 24.65625 31.371094 24.3125 31.25 24.007812 C 31.148438 23.753906 31.035156 23.527344 30.902344 23.390625 C 30.746094 23.230469 30.570312 23.171875 30.359375 23.253906 C 30.058594 23.371094 29.925781 23.570312 29.910156 23.890625 C 29.890625 24.21875 30.015625 24.703125 30.207031 25.410156 C 30.316406 25.824219 30.515625 26.371094 30.738281 26.917969 C 31.1875 28.003906 31.710938 29.085938 31.710938 29.085938 C 31.742188 29.152344 31.824219 29.183594 31.890625 29.152344 C 31.960938 29.121094 31.988281 29.039062 31.957031 28.972656 Z M 31.957031 28.972656 "/><path style=" stroke:none;fill-rule:evenodd;fill:#070000;fill-opacity:1;" d="M 33.605469 28.628906 C 33.605469 28.628906 33.484375 27.371094 33.414062 26.195312 C 33.375 25.5625 33.351562 24.957031 33.375 24.582031 C 33.40625 24.164062 33.457031 23.878906 33.535156 23.6875 C 33.617188 23.472656 33.722656 23.402344 33.855469 23.382812 C 33.902344 23.378906 33.941406 23.410156 33.980469 23.457031 C 34.046875 23.535156 34.105469 23.65625 34.160156 23.816406 C 34.246094 24.082031 34.3125 24.449219 34.355469 24.925781 C 34.390625 25.324219 34.453125 25.878906 34.523438 26.441406 C 34.667969 27.5625 34.839844 28.707031 34.839844 28.707031 C 34.847656 28.78125 34.917969 28.835938 34.992188 28.824219 C 35.066406 28.8125 35.121094 28.746094 35.109375 28.671875 C 35.109375 28.671875 34.929688 27.25 34.792969 26.027344 C 34.746094 25.605469 34.703125 25.203125 34.679688 24.898438 C 34.625 24.261719 34.519531 23.808594 34.390625 23.519531 C 34.230469 23.164062 34.011719 23.039062 33.8125 23.066406 C 33.621094 23.09375 33.449219 23.171875 33.3125 23.402344 C 33.191406 23.609375 33.097656 23.960938 33.054688 24.5625 C 33.03125 24.945312 33.054688 25.570312 33.097656 26.214844 C 33.183594 27.398438 33.335938 28.65625 33.335938 28.65625 C 33.34375 28.730469 33.414062 28.785156 33.488281 28.777344 C 33.5625 28.769531 33.617188 28.703125 33.605469 28.628906 Z M 33.605469 28.628906 "/><path style=" stroke:none;fill-rule:evenodd;fill:#070000;fill-opacity:1;" d="M 34.9375 29.488281 L 35.117188 31.613281 C 35.125 31.691406 35.191406 31.753906 35.269531 31.753906 C 35.347656 31.753906 35.414062 31.695312 35.425781 31.617188 C 35.425781 31.617188 35.523438 30.914062 35.71875 30.242188 C 35.808594 29.925781 35.921875 29.621094 36.058594 29.398438 C 36.222656 29.136719 36.453125 28.867188 36.675781 28.707031 C 36.757812 28.648438 36.839844 28.601562 36.917969 28.582031 C 36.980469 28.566406 37.042969 28.570312 37.089844 28.609375 C 37.117188 28.628906 37.121094 28.667969 37.125 28.710938 C 37.132812 28.800781 37.117188 28.90625 37.089844 29.027344 C 37.035156 29.273438 36.929688 29.570312 36.808594 29.863281 C 36.648438 30.234375 36.5 30.574219 36.40625 30.914062 C 36.339844 31.164062 36.300781 31.417969 36.304688 31.683594 C 36.304688 31.878906 36.300781 32.113281 36.292969 32.347656 C 36.273438 32.855469 36.246094 33.351562 36.246094 33.351562 C 36.238281 33.425781 36.292969 33.488281 36.371094 33.496094 C 36.445312 33.5 36.511719 33.445312 36.515625 33.371094 C 36.515625 33.371094 36.558594 32.871094 36.589844 32.363281 C 36.597656 32.121094 36.609375 31.878906 36.609375 31.683594 C 36.609375 31.445312 36.652344 31.222656 36.714844 31 C 36.808594 30.671875 36.949219 30.34375 37.101562 29.988281 C 37.261719 29.609375 37.394531 29.226562 37.4375 28.933594 C 37.472656 28.660156 37.417969 28.457031 37.292969 28.355469 C 37.113281 28.214844 36.886719 28.222656 36.648438 28.34375 C 36.34375 28.503906 36.011719 28.867188 35.785156 29.230469 C 35.636719 29.472656 35.507812 29.808594 35.410156 30.152344 C 35.375 30.273438 35.34375 30.398438 35.316406 30.515625 L 35.203125 29.460938 C 35.195312 29.386719 35.132812 29.332031 35.054688 29.339844 C 34.984375 29.347656 34.929688 29.414062 34.933594 29.488281 Z M 34.9375 29.488281 "/><path style=" stroke:none;fill-rule:evenodd;fill:#070000;fill-opacity:1;" d="M 38.683594 45.761719 C 38.683594 45.761719 38.320312 45.546875 37.882812 45.25 C 37.636719 45.082031 37.363281 44.886719 37.125 44.6875 C 36.648438 44.296875 36.121094 44.105469 35.8125 43.917969 C 35.714844 43.859375 35.640625 43.808594 35.621094 43.738281 C 35.617188 43.726562 35.628906 43.714844 35.636719 43.699219 C 35.65625 43.667969 35.6875 43.640625 35.722656 43.613281 C 35.867188 43.507812 36.109375 43.421875 36.410156 43.398438 C 36.71875 43.371094 37.089844 43.402344 37.488281 43.542969 C 37.785156 43.648438 38.085938 43.785156 38.382812 43.933594 C 39.285156 44.390625 40.117188 44.957031 40.417969 45.070312 C 40.683594 45.167969 41.320312 45.191406 41.917969 45.410156 C 42.210938 45.511719 42.492188 45.667969 42.710938 45.90625 C 42.90625 46.121094 43.027344 46.40625 43.101562 46.695312 C 43.277344 47.371094 43.214844 48.078125 43.214844 48.078125 C 43.214844 48.105469 43.21875 48.136719 43.230469 48.164062 C 43.230469 48.164062 45.308594 52.539062 46.863281 55.773438 C 47.605469 57.316406 48.230469 58.597656 48.453125 59.027344 C 48.703125 59.507812 49.164062 60.40625 49.644531 61.359375 C 50.496094 63.03125 51.425781 64.863281 51.425781 64.863281 C 51.460938 64.929688 51.542969 64.957031 51.609375 64.925781 C 51.675781 64.890625 51.703125 64.808594 51.667969 64.742188 C 51.667969 64.742188 50.757812 62.902344 49.917969 61.222656 C 49.4375 60.265625 48.980469 59.363281 48.734375 58.882812 C 48.511719 58.457031 47.894531 57.175781 47.15625 55.636719 C 45.6875 52.578125 43.753906 48.5 43.542969 48.0625 C 43.554688 47.886719 43.582031 47.238281 43.417969 46.613281 C 43.328125 46.273438 43.179688 45.941406 42.949219 45.6875 C 42.695312 45.40625 42.367188 45.226562 42.027344 45.105469 C 41.429688 44.886719 40.796875 44.867188 40.535156 44.765625 C 40.234375 44.65625 39.417969 44.09375 38.527344 43.648438 C 38.21875 43.492188 37.902344 43.351562 37.597656 43.242188 C 37.035156 43.046875 36.523438 43.039062 36.136719 43.121094 C 35.761719 43.199219 35.5 43.363281 35.390625 43.519531 C 35.320312 43.621094 35.300781 43.726562 35.332031 43.824219 C 35.371094 43.949219 35.480469 44.066406 35.660156 44.167969 C 35.964844 44.347656 36.484375 44.523438 36.953125 44.894531 C 37.207031 45.09375 37.484375 45.289062 37.742188 45.457031 C 38.195312 45.75 38.566406 45.960938 38.566406 45.960938 C 38.625 45.992188 38.695312 45.972656 38.726562 45.917969 C 38.757812 45.863281 38.738281 45.792969 38.683594 45.761719 Z M 38.683594 45.761719 "/><path style=" stroke:none;fill-rule:evenodd;fill:#070000;fill-opacity:1;" d="M 28.617188 44.359375 C 28.628906 44.316406 28.671875 44.292969 28.722656 44.277344 C 28.824219 44.242188 28.96875 44.234375 29.128906 44.242188 C 29.460938 44.257812 29.875 44.335938 30.285156 44.414062 C 30.875 44.523438 31.53125 44.828125 32.140625 45.007812 C 32.453125 45.097656 32.75 45.15625 33.019531 45.148438 C 33.320312 45.140625 33.953125 45.113281 34.636719 45.074219 C 35.777344 45.003906 37.042969 44.90625 37.042969 44.90625 C 37.109375 44.902344 37.15625 44.847656 37.152344 44.785156 C 37.152344 44.722656 37.097656 44.671875 37.03125 44.675781 L 33.015625 44.828125 C 32.773438 44.832031 32.507812 44.777344 32.234375 44.695312 C 31.613281 44.515625 30.945312 44.207031 30.34375 44.09375 C 29.828125 43.996094 29.304688 43.902344 28.933594 43.914062 C 28.574219 43.929688 28.34375 44.0625 28.296875 44.300781 C 28.277344 44.386719 28.300781 44.503906 28.398438 44.628906 C 28.523438 44.792969 28.78125 45 29.097656 45.214844 C 29.824219 45.707031 30.878906 46.25 31.339844 46.429688 C 31.570312 46.519531 31.863281 46.582031 32.175781 46.628906 C 32.902344 46.738281 33.75 46.757812 34.066406 46.847656 C 34.335938 46.921875 34.898438 47.082031 35.421875 47.195312 C 35.792969 47.277344 36.148438 47.339844 36.371094 47.339844 C 36.445312 47.339844 36.507812 47.28125 36.507812 47.207031 C 36.507812 47.132812 36.445312 47.070312 36.371094 47.070312 C 36.164062 47.066406 35.835938 47 35.488281 46.917969 C 34.96875 46.796875 34.417969 46.636719 34.152344 46.558594 C 33.828125 46.460938 32.964844 46.429688 32.222656 46.316406 C 31.9375 46.269531 31.667969 46.214844 31.460938 46.132812 C 31.070312 45.980469 30.25 45.558594 29.578125 45.140625 C 29.195312 44.902344 28.863281 44.664062 28.695312 44.476562 C 28.660156 44.4375 28.625 44.371094 28.617188 44.359375 Z M 28.617188 44.359375 "/><path style=" stroke:none;fill-rule:evenodd;fill:#070000;fill-opacity:1;" d="M 31.074219 46.300781 C 31.074219 46.300781 31.277344 46.46875 31.585938 46.675781 C 31.742188 46.78125 31.933594 46.890625 32.132812 47 C 32.519531 47.21875 32.953125 47.425781 33.308594 47.523438 C 33.644531 47.617188 34.035156 47.679688 34.390625 47.710938 C 34.976562 47.765625 35.472656 47.75 35.472656 47.75 C 35.546875 47.753906 35.609375 47.691406 35.609375 47.617188 C 35.609375 47.542969 35.546875 47.480469 35.472656 47.480469 C 35.472656 47.480469 35.148438 47.46875 34.71875 47.425781 C 34.558594 47.410156 34.390625 47.394531 34.214844 47.371094 C 33.9375 47.332031 33.652344 47.285156 33.398438 47.210938 C 33.125 47.136719 32.8125 46.992188 32.507812 46.835938 C 32.277344 46.71875 32.054688 46.585938 31.859375 46.472656 C 31.789062 46.433594 31.722656 46.398438 31.660156 46.363281 C 31.390625 46.214844 31.207031 46.109375 31.207031 46.109375 C 31.15625 46.074219 31.082031 46.085938 31.046875 46.136719 C 31.011719 46.191406 31.023438 46.261719 31.074219 46.300781 Z M 31.074219 46.300781 "/><path style=" stroke:none;fill-rule:evenodd;fill:#070000;fill-opacity:1;" d="M 32.359375 47.101562 C 32.359375 47.101562 32.648438 47.445312 33.117188 47.800781 C 33.230469 47.882812 33.351562 47.96875 33.484375 48.050781 C 33.886719 48.296875 34.371094 48.503906 34.882812 48.574219 C 35.230469 48.617188 35.644531 48.660156 36.074219 48.703125 C 37.28125 48.816406 38.589844 48.902344 38.832031 48.949219 C 38.925781 48.964844 39.042969 49.035156 39.195312 49.113281 C 39.378906 49.207031 39.597656 49.316406 39.835938 49.386719 C 40.085938 49.460938 40.359375 49.496094 40.644531 49.4375 C 40.71875 49.425781 40.769531 49.351562 40.753906 49.28125 C 40.738281 49.207031 40.667969 49.15625 40.59375 49.171875 C 40.355469 49.210938 40.128906 49.175781 39.925781 49.109375 C 39.660156 49.023438 39.429688 48.886719 39.242188 48.785156 C 39.105469 48.710938 38.984375 48.65625 38.890625 48.636719 C 38.652344 48.589844 37.324219 48.492188 36.105469 48.378906 C 35.683594 48.335938 35.269531 48.296875 34.925781 48.25 C 34.554688 48.203125 34.203125 48.070312 33.890625 47.910156 C 33.679688 47.804688 33.488281 47.6875 33.316406 47.570312 C 32.839844 47.25 32.53125 46.945312 32.53125 46.945312 C 32.484375 46.898438 32.414062 46.898438 32.367188 46.941406 C 32.320312 46.984375 32.316406 47.054688 32.359375 47.101562 Z M 32.359375 47.101562 "/><path style=" stroke:none;fill-rule:evenodd;fill:#070000;fill-opacity:1;" d="M 39.667969 49.257812 C 39.667969 49.257812 40.75 54.113281 41.78125 58.449219 C 42.402344 61.0625 43.003906 63.484375 43.320312 64.554688 C 43.800781 66.183594 44.613281 67.972656 45.699219 69.265625 C 46.546875 70.277344 47.566406 70.984375 48.722656 71.105469 C 49.242188 71.160156 49.78125 70.996094 50.320312 70.644531 C 50.894531 70.269531 51.476562 69.6875 52.050781 68.953125 C 53.640625 66.90625 55.15625 63.6875 56.273438 60.734375 C 57.335938 57.925781 58.070312 55.601562 58.363281 53.828125 C 58.59375 52.453125 58.550781 51.398438 58.203125 50.695312 C 57.992188 50.269531 57.582031 49.898438 57.054688 49.640625 C 56.414062 49.328125 55.601562 49.183594 54.785156 49.296875 C 53.652344 49.453125 52.507812 50.101562 51.800781 51.496094 C 51.363281 52.359375 50.902344 53.320312 50.472656 54.246094 C 49.511719 56.308594 48.695312 58.191406 48.570312 58.394531 C 48.53125 58.457031 48.554688 58.542969 48.617188 58.578125 C 48.683594 58.617188 48.765625 58.597656 48.804688 58.535156 C 48.929688 58.328125 49.761719 56.4375 50.734375 54.371094 C 51.167969 53.449219 51.628906 52.492188 52.070312 51.632812 C 52.726562 50.347656 53.78125 49.746094 54.828125 49.605469 C 55.582031 49.503906 56.324219 49.636719 56.914062 49.925781 C 57.371094 50.148438 57.734375 50.464844 57.917969 50.835938 C 58.320312 51.660156 58.253906 52.988281 57.847656 54.773438 C 57.484375 56.375 56.835938 58.335938 55.96875 60.621094 C 54.867188 63.542969 53.367188 66.726562 51.789062 68.753906 C 51.246094 69.453125 50.691406 70.015625 50.140625 70.371094 C 49.671875 70.675781 49.207031 70.832031 48.753906 70.785156 C 47.679688 70.671875 46.738281 70 45.949219 69.054688 C 44.890625 67.796875 44.101562 66.054688 43.632812 64.464844 C 43.378906 63.609375 42.945312 61.890625 42.460938 59.902344 C 42.207031 58.878906 41.945312 57.78125 41.683594 56.695312 C 40.761719 52.886719 39.894531 49.207031 39.894531 49.207031 C 39.878906 49.144531 39.816406 49.105469 39.753906 49.121094 C 39.691406 49.136719 39.65625 49.195312 39.667969 49.257812 Z M 39.667969 49.257812 "/><path style=" stroke:none;fill-rule:evenodd;fill:#070000;fill-opacity:1;" d="M 51.269531 53.105469 C 51.269531 53.105469 51.253906 52.945312 51.222656 52.679688 C 51.21875 52.621094 51.210938 52.5625 51.199219 52.496094 C 51.152344 52.125 51.097656 51.617188 51.113281 51.074219 C 51.117188 50.855469 51.132812 50.628906 51.160156 50.402344 C 51.1875 50.183594 51.226562 49.960938 51.28125 49.746094 C 51.304688 49.675781 51.265625 49.597656 51.195312 49.578125 C 51.121094 49.554688 51.042969 49.59375 51.023438 49.667969 C 50.945312 49.890625 50.886719 50.125 50.847656 50.359375 C 50.789062 50.71875 50.777344 51.082031 50.785156 51.421875 C 50.796875 51.898438 50.839844 52.335938 50.902344 52.648438 C 50.96875 52.96875 51.046875 53.160156 51.046875 53.160156 C 51.0625 53.222656 51.125 53.257812 51.183594 53.246094 C 51.25 53.230469 51.285156 53.167969 51.269531 53.105469 Z M 51.269531 53.105469 "/><path style=" stroke:none;fill-rule:evenodd;fill:#070000;fill-opacity:1;" d="M 33.101562 47.621094 C 33.101562 47.621094 32.636719 50.058594 32.082031 52.800781 C 31.847656 53.949219 31.601562 55.148438 31.363281 56.246094 C 31.015625 57.847656 30.683594 59.222656 30.445312 59.878906 C 30.007812 61.078125 28.949219 62.347656 27.78125 63.039062 C 26.914062 63.554688 25.980469 63.75 25.21875 63.300781 C 24.394531 62.8125 23.835938 61.90625 23.59375 60.785156 C 23.308594 59.453125 23.464844 57.8125 24.160156 56.167969 C 24.675781 54.9375 25.550781 53.054688 26.425781 51.179688 C 27.320312 49.269531 28.210938 47.371094 28.730469 46.199219 C 29.003906 45.589844 29.171875 45.171875 29.195312 45.039062 C 29.210938 44.964844 29.160156 44.894531 29.085938 44.878906 C 29.011719 44.867188 28.941406 44.917969 28.929688 44.988281 C 28.90625 45.113281 28.738281 45.507812 28.476562 46.085938 C 27.949219 47.253906 27.042969 49.144531 26.144531 51.050781 C 25.257812 52.921875 24.382812 54.8125 23.859375 56.046875 C 23.140625 57.757812 22.980469 59.464844 23.277344 60.851562 C 23.539062 62.074219 24.152344 63.050781 25.050781 63.578125 C 25.914062 64.085938 26.96875 63.898438 27.949219 63.316406 C 29.175781 62.59375 30.289062 61.253906 30.75 59.992188 C 31.050781 59.164062 31.503906 57.203125 31.941406 55.082031 C 32.144531 54.097656 32.34375 53.074219 32.523438 52.117188 C 32.988281 49.6875 33.328125 47.660156 33.328125 47.660156 C 33.339844 47.597656 33.296875 47.539062 33.234375 47.527344 C 33.171875 47.515625 33.113281 47.558594 33.101562 47.621094 Z M 33.101562 47.621094 "/><path style=" stroke:none;fill-rule:evenodd;fill:#070000;fill-opacity:1;" d="M 29.554688 61.597656 C 29.554688 61.597656 29.769531 62.121094 30.074219 62.789062 C 30.242188 63.15625 30.441406 63.566406 30.640625 63.957031 C 30.96875 64.601562 31.308594 65.199219 31.542969 65.46875 C 31.714844 65.675781 31.898438 65.882812 32.070312 66.074219 C 32.511719 66.570312 32.882812 66.960938 32.882812 66.960938 C 32.933594 67.015625 33.015625 67.019531 33.070312 66.972656 C 33.125 66.925781 33.128906 66.84375 33.082031 66.789062 L 31.785156 65.261719 C 31.609375 65.054688 31.378906 64.65625 31.128906 64.191406 C 30.851562 63.671875 30.566406 63.074219 30.324219 62.578125 C 30.027344 61.960938 29.804688 61.492188 29.804688 61.492188 C 29.773438 61.421875 29.695312 61.394531 29.625 61.421875 C 29.558594 61.453125 29.527344 61.53125 29.554688 61.597656 Z M 29.554688 61.597656 "/><path style=" stroke:none;fill-rule:evenodd;fill:#070000;fill-opacity:1;" d="M 29.449219 44.117188 C 29.449219 44.117188 29.566406 43.769531 29.71875 43.230469 C 29.871094 42.671875 30.054688 41.90625 30.242188 41.128906 C 30.394531 40.5 30.546875 39.867188 30.664062 39.320312 C 30.773438 38.804688 30.855469 38.371094 30.894531 38.097656 C 30.90625 38.023438 30.855469 37.953125 30.78125 37.941406 C 30.707031 37.929688 30.636719 37.980469 30.625 38.050781 C 30.570312 38.363281 30.441406 38.882812 30.296875 39.492188 C 30.042969 40.5625 29.714844 41.902344 29.484375 42.851562 C 29.441406 43.027344 29.402344 43.1875 29.371094 43.335938 C 29.277344 43.777344 29.226562 44.0625 29.226562 44.0625 C 29.210938 44.125 29.246094 44.1875 29.308594 44.203125 C 29.371094 44.21875 29.433594 44.179688 29.449219 44.117188 Z M 29.449219 44.117188 "/><g clip-rule="nonzero" clip-path="url(#cb6acbe987)"><path style=" stroke:none;fill-rule:evenodd;fill:#070000;fill-opacity:1;" d="M 31.558594 65.3125 C 31.558594 65.3125 31.574219 65.667969 31.542969 66.011719 C 31.527344 66.167969 31.5 66.324219 31.457031 66.429688 C 31.402344 66.566406 31.394531 66.667969 31.40625 66.757812 C 31.417969 66.832031 31.449219 66.898438 31.484375 66.964844 C 31.527344 67.046875 31.578125 67.132812 31.585938 67.28125 C 31.59375 67.371094 31.582031 67.472656 31.558594 67.582031 C 31.496094 67.949219 31.347656 68.40625 31.296875 68.910156 C 31.257812 69.269531 31.148438 70.554688 31.066406 71.679688 C 30.992188 72.664062 30.9375 73.523438 30.9375 73.523438 C 30.933594 73.597656 30.988281 73.664062 31.0625 73.671875 C 31.136719 73.675781 31.203125 73.621094 31.210938 73.546875 C 31.210938 73.546875 31.296875 72.6875 31.382812 71.703125 C 31.480469 70.585938 31.585938 69.300781 31.621094 68.945312 C 31.671875 68.449219 31.820312 67.996094 31.878906 67.636719 C 31.902344 67.5 31.917969 67.375 31.910156 67.265625 C 31.898438 67.085938 31.847656 66.96875 31.796875 66.871094 C 31.765625 66.8125 31.734375 66.765625 31.722656 66.703125 C 31.714844 66.664062 31.722656 66.613281 31.746094 66.546875 C 31.796875 66.414062 31.820312 66.222656 31.828125 66.027344 C 31.835938 65.667969 31.789062 65.292969 31.789062 65.292969 C 31.78125 65.230469 31.726562 65.183594 31.664062 65.1875 C 31.601562 65.191406 31.554688 65.25 31.558594 65.3125 Z M 31.558594 65.3125 "/></g><g clip-rule="nonzero" clip-path="url(#0588763fe9)"><path style=" stroke:none;fill-rule:evenodd;fill:#070000;fill-opacity:1;" d="M 33.722656 68.878906 C 33.722656 68.878906 34.113281 69.3125 34.675781 69.878906 C 34.972656 70.171875 35.316406 70.503906 35.671875 70.832031 C 36.152344 71.269531 36.65625 71.691406 37.101562 72.007812 C 37.578125 72.339844 38.035156 72.648438 38.433594 72.910156 C 39.230469 73.425781 39.804688 73.757812 39.804688 73.757812 C 39.863281 73.796875 39.945312 73.777344 39.984375 73.714844 C 40.023438 73.652344 40.003906 73.570312 39.941406 73.53125 C 39.941406 73.53125 39.390625 73.175781 38.609375 72.648438 C 38.214844 72.382812 37.757812 72.074219 37.289062 71.742188 C 36.855469 71.4375 36.363281 71.019531 35.890625 70.59375 C 35.535156 70.273438 35.191406 69.949219 34.890625 69.660156 C 34.324219 69.113281 33.917969 68.699219 33.917969 68.699219 C 33.867188 68.644531 33.785156 68.644531 33.730469 68.695312 C 33.675781 68.742188 33.675781 68.828125 33.726562 68.878906 Z M 33.722656 68.878906 "/></g><path style=" stroke:none;fill-rule:evenodd;fill:#070000;fill-opacity:1;" d="M 34.710938 68.878906 C 34.710938 68.878906 35.171875 69.136719 35.828125 69.441406 C 36.0625 69.550781 36.320312 69.664062 36.59375 69.773438 C 37.238281 70.035156 37.960938 70.277344 38.601562 70.390625 C 39.382812 70.53125 40.125 70.554688 40.761719 70.511719 C 42.027344 70.433594 42.890625 70.128906 42.890625 70.128906 C 42.957031 70.105469 42.996094 70.03125 42.972656 69.964844 C 42.949219 69.898438 42.875 69.859375 42.808594 69.882812 C 42.808594 69.882812 41.96875 70.136719 40.742188 70.195312 C 40.128906 70.226562 39.414062 70.207031 38.660156 70.074219 C 38.164062 69.984375 37.617188 69.816406 37.097656 69.625 C 36.773438 69.507812 36.464844 69.378906 36.183594 69.257812 C 35.410156 68.929688 34.839844 68.640625 34.839844 68.640625 C 34.773438 68.605469 34.691406 68.632812 34.65625 68.695312 C 34.621094 68.761719 34.648438 68.84375 34.710938 68.878906 Z M 34.710938 68.878906 "/><g clip-rule="nonzero" clip-path="url(#930e116dbb)"><path style=" stroke:none;fill-rule:evenodd;fill:#070000;fill-opacity:1;" d="M 56.398438 73.191406 C 56.398438 73.191406 56.375 70.847656 56.476562 68.511719 C 56.523438 67.386719 56.601562 66.265625 56.726562 65.414062 C 56.832031 64.675781 57.023438 63.519531 57.238281 62.238281 C 57.769531 59.121094 58.457031 55.261719 58.527344 54.875 C 58.636719 54.703125 59.1875 53.804688 59.398438 52.46875 C 59.515625 51.726562 59.527344 50.851562 59.304688 49.890625 C 59.289062 49.820312 59.21875 49.773438 59.148438 49.789062 C 59.074219 49.804688 59.03125 49.875 59.046875 49.945312 C 59.25 50.871094 59.226562 51.710938 59.109375 52.421875 C 58.871094 53.832031 58.25 54.726562 58.25 54.726562 C 58.234375 54.746094 58.226562 54.765625 58.222656 54.789062 C 58.222656 54.789062 57.628906 58.082031 57.101562 61.128906 C 56.808594 62.816406 56.542969 64.429688 56.40625 65.367188 C 56.285156 66.230469 56.207031 67.363281 56.164062 68.5 C 56.078125 70.84375 56.132812 73.199219 56.132812 73.199219 C 56.132812 73.269531 56.191406 73.328125 56.265625 73.328125 C 56.339844 73.328125 56.398438 73.265625 56.398438 73.191406 Z M 56.398438 73.191406 "/></g><g clip-rule="nonzero" clip-path="url(#1d7e0e1a9c)"><path style=" stroke:none;fill-rule:evenodd;fill:#070000;fill-opacity:1;" d="M 59.476562 51.816406 C 59.476562 51.816406 59.75 49.558594 59.378906 47.539062 C 59.183594 46.492188 58.8125 45.511719 58.15625 44.917969 C 57.574219 44.390625 56.824219 43.964844 56.066406 43.625 C 54.507812 42.929688 52.90625 42.605469 52.613281 42.550781 C 52.488281 42.441406 52.078125 42.128906 51.542969 42.214844 C 51.25 42.261719 50.910156 42.425781 50.566406 42.820312 C 49.714844 43.800781 48.59375 44.839844 47.347656 45.714844 C 46.136719 46.566406 44.804688 47.269531 43.476562 47.605469 C 43.402344 47.625 43.359375 47.695312 43.378906 47.765625 C 43.398438 47.835938 43.46875 47.878906 43.539062 47.863281 C 44.90625 47.53125 46.277344 46.832031 47.527344 45.96875 C 48.800781 45.085938 49.941406 44.027344 50.8125 43.03125 C 51.089844 42.714844 51.355469 42.570312 51.59375 42.535156 C 52.078125 42.457031 52.421875 42.8125 52.421875 42.8125 C 52.445312 42.839844 52.476562 42.855469 52.511719 42.859375 C 52.511719 42.859375 54.25 43.167969 55.933594 43.917969 C 56.660156 44.242188 57.382812 44.652344 57.945312 45.15625 C 58.554688 45.703125 58.886719 46.621094 59.074219 47.59375 C 59.457031 49.570312 59.210938 51.785156 59.210938 51.785156 C 59.203125 51.859375 59.253906 51.925781 59.328125 51.933594 C 59.402344 51.941406 59.464844 51.890625 59.476562 51.816406 Z M 59.476562 51.816406 "/></g><path style=" stroke:none;fill-rule:evenodd;fill:#070000;fill-opacity:1;" d="M 37.433594 42.472656 C 37.441406 42.488281 37.457031 42.511719 37.464844 42.53125 C 37.539062 42.699219 37.617188 42.984375 37.71875 43.214844 C 37.785156 43.375 37.867188 43.511719 37.941406 43.59375 C 37.984375 43.648438 38.070312 43.65625 38.128906 43.613281 C 38.183594 43.566406 38.191406 43.484375 38.144531 43.425781 C 38.113281 43.382812 38.089844 43.316406 38.0625 43.242188 C 38.035156 43.175781 38.011719 43.105469 37.984375 43.03125 C 37.898438 42.773438 37.808594 42.496094 37.734375 42.347656 C 37.667969 42.226562 37.585938 42.175781 37.53125 42.164062 C 37.496094 42.160156 37.441406 42.152344 37.378906 42.148438 C 37.226562 42.140625 37.039062 42.140625 37.039062 42.140625 C 36.964844 42.132812 36.898438 42.1875 36.894531 42.261719 C 36.886719 42.335938 36.945312 42.398438 37.019531 42.402344 Z M 37.433594 42.472656 "/><path style=" stroke:none;fill-rule:evenodd;fill:#070000;fill-opacity:1;" d="M 37.550781 42.460938 C 37.550781 42.460938 37.878906 42.378906 38.320312 42.195312 C 38.472656 42.128906 38.636719 42.050781 38.804688 41.960938 C 39.1875 41.753906 39.589844 41.484375 39.90625 41.148438 C 40.164062 40.878906 40.382812 40.644531 40.558594 40.441406 C 40.96875 39.96875 41.171875 39.691406 41.171875 39.691406 C 41.214844 39.632812 41.207031 39.550781 41.148438 39.503906 C 41.09375 39.460938 41.007812 39.46875 40.964844 39.527344 C 40.964844 39.527344 40.832031 39.675781 40.582031 39.949219 C 40.484375 40.0625 40.359375 40.191406 40.222656 40.34375 C 40.0625 40.511719 39.878906 40.710938 39.671875 40.925781 C 39.4375 41.171875 39.15625 41.378906 38.875 41.550781 C 38.6875 41.664062 38.503906 41.761719 38.332031 41.847656 C 37.855469 42.082031 37.476562 42.207031 37.476562 42.207031 C 37.40625 42.226562 37.363281 42.300781 37.386719 42.371094 C 37.40625 42.441406 37.476562 42.480469 37.550781 42.460938 Z M 37.550781 42.460938 "/><path style=" stroke:none;fill-rule:evenodd;fill:#070000;fill-opacity:1;" d="M 40.773438 36.425781 C 40.773438 36.425781 40.800781 36.925781 40.839844 37.628906 C 40.867188 38.160156 40.898438 38.804688 40.914062 39.4375 C 40.921875 39.78125 40.925781 40.121094 40.921875 40.4375 C 40.917969 40.816406 40.910156 41.15625 40.871094 41.425781 C 40.859375 41.5 40.910156 41.566406 40.984375 41.578125 C 41.058594 41.589844 41.125 41.539062 41.132812 41.46875 C 41.183594 41.191406 41.21875 40.835938 41.234375 40.445312 C 41.25 40.125 41.246094 39.78125 41.238281 39.429688 C 41.226562 38.792969 41.195312 38.144531 41.15625 37.609375 C 41.101562 36.902344 41.039062 36.402344 41.039062 36.402344 C 41.035156 36.328125 40.96875 36.273438 40.894531 36.28125 C 40.824219 36.289062 40.769531 36.351562 40.773438 36.425781 Z M 40.773438 36.425781 "/><path style=" stroke:none;fill-rule:evenodd;fill:#070000;fill-opacity:1;" d="M 41.351562 37.519531 C 41.351562 37.519531 41.464844 37.699219 41.675781 37.9375 C 41.777344 38.050781 41.90625 38.175781 42.050781 38.304688 C 42.175781 38.417969 42.316406 38.53125 42.46875 38.628906 C 42.617188 38.726562 42.78125 38.808594 42.945312 38.875 C 43.011719 38.90625 43.089844 38.878906 43.121094 38.816406 C 43.152344 38.75 43.125 38.671875 43.058594 38.640625 C 42.914062 38.5625 42.78125 38.464844 42.652344 38.367188 C 42.515625 38.269531 42.382812 38.164062 42.265625 38.0625 C 42.128906 37.941406 42.011719 37.824219 41.90625 37.71875 C 41.695312 37.511719 41.566406 37.359375 41.566406 37.359375 C 41.519531 37.300781 41.4375 37.289062 41.378906 37.332031 C 41.320312 37.378906 41.308594 37.460938 41.351562 37.519531 Z M 41.351562 37.519531 "/><path style=" stroke:none;fill-rule:evenodd;fill:#070000;fill-opacity:1;" d="M 37.03125 36.289062 C 37.03125 36.289062 37.328125 36.488281 37.902344 36.738281 C 38.15625 36.847656 38.460938 36.960938 38.816406 37.078125 C 39.203125 37.203125 39.566406 37.296875 39.882812 37.359375 C 40.039062 37.390625 40.1875 37.410156 40.316406 37.429688 C 40.726562 37.484375 40.980469 37.484375 40.980469 37.484375 C 41.050781 37.488281 41.113281 37.433594 41.117188 37.359375 C 41.125 37.289062 41.066406 37.226562 40.992188 37.222656 C 40.992188 37.222656 40.566406 37.183594 39.945312 37.046875 C 39.644531 36.980469 39.289062 36.894531 38.917969 36.773438 C 38.574219 36.660156 38.277344 36.542969 38.03125 36.445312 C 37.46875 36.222656 37.167969 36.0625 37.167969 36.0625 C 37.105469 36.023438 37.027344 36.042969 36.988281 36.105469 C 36.949219 36.167969 36.96875 36.25 37.03125 36.289062 Z M 37.03125 36.289062 "/><path style=" stroke:none;fill-rule:evenodd;fill:#070000;fill-opacity:1;" d="M 33.742188 23.246094 C 33.742188 23.246094 33.828125 22.710938 34.007812 21.921875 C 34.070312 21.65625 34.140625 21.363281 34.222656 21.050781 C 34.394531 20.382812 34.621094 19.636719 34.910156 18.910156 C 35.175781 18.222656 35.511719 17.621094 35.828125 17.117188 C 36.464844 16.109375 37.046875 15.507812 37.046875 15.507812 C 37.101562 15.457031 37.101562 15.375 37.050781 15.320312 C 37 15.269531 36.917969 15.269531 36.863281 15.320312 C 36.863281 15.320312 36.230469 15.914062 35.558594 16.945312 C 35.226562 17.460938 34.886719 18.085938 34.605469 18.792969 C 34.3125 19.53125 34.085938 20.292969 33.914062 20.96875 C 33.832031 21.289062 33.765625 21.589844 33.707031 21.859375 C 33.542969 22.664062 33.480469 23.207031 33.480469 23.207031 C 33.46875 23.28125 33.519531 23.347656 33.59375 23.359375 C 33.664062 23.367188 33.730469 23.316406 33.742188 23.246094 Z M 33.742188 23.246094 "/><path style=" stroke:none;fill-rule:evenodd;fill:#070000;fill-opacity:1;" d="M 38.542969 19.503906 C 38.542969 19.503906 38.863281 19.246094 39.3125 18.878906 C 39.464844 18.75 39.636719 18.605469 39.816406 18.453125 C 40.019531 18.28125 40.257812 18.101562 40.488281 17.933594 C 40.542969 17.894531 40.597656 17.855469 40.652344 17.816406 C 40.632812 17.84375 40.617188 17.871094 40.597656 17.894531 C 40.433594 18.15625 40.292969 18.421875 40.226562 18.632812 C 40.199219 18.714844 40.242188 18.800781 40.324219 18.828125 C 40.402344 18.855469 40.488281 18.8125 40.515625 18.730469 C 40.585938 18.542969 40.734375 18.3125 40.890625 18.085938 C 41.214844 17.617188 41.597656 17.167969 41.597656 17.167969 C 41.65625 17.097656 41.65625 16.996094 41.59375 16.925781 C 41.53125 16.855469 41.429688 16.839844 41.351562 16.890625 C 41.351562 16.890625 40.820312 17.226562 40.269531 17.628906 C 40.027344 17.804688 39.785156 17.992188 39.574219 18.171875 C 39.398438 18.328125 39.230469 18.472656 39.074219 18.605469 C 38.640625 18.992188 38.339844 19.273438 38.339844 19.273438 C 38.277344 19.328125 38.269531 19.425781 38.328125 19.488281 C 38.382812 19.550781 38.480469 19.558594 38.542969 19.503906 Z M 38.542969 19.503906 "/><path style=" stroke:none;fill-rule:evenodd;fill:#070000;fill-opacity:1;" d="M 40.484375 18.789062 C 40.484375 18.789062 40.824219 18.480469 41.199219 18.117188 C 41.519531 17.804688 41.871094 17.457031 42.074219 17.253906 C 42.199219 17.441406 42.40625 17.71875 42.695312 17.96875 C 42.984375 18.214844 43.347656 18.429688 43.777344 18.515625 C 43.859375 18.535156 43.945312 18.484375 43.960938 18.402344 C 43.980469 18.320312 43.925781 18.238281 43.84375 18.21875 C 43.480469 18.125 43.183594 17.914062 42.941406 17.695312 C 42.515625 17.304688 42.28125 16.863281 42.28125 16.863281 C 42.253906 16.8125 42.199219 16.773438 42.140625 16.765625 C 42.082031 16.757812 42.019531 16.777344 41.980469 16.816406 C 41.980469 16.816406 41.414062 17.371094 40.9375 17.863281 C 40.578125 18.234375 40.265625 18.574219 40.265625 18.574219 C 40.203125 18.632812 40.203125 18.730469 40.265625 18.789062 C 40.324219 18.851562 40.421875 18.851562 40.484375 18.789062 Z M 40.484375 18.789062 "/><path style=" stroke:none;fill-rule:evenodd;fill:#070000;fill-opacity:1;" d="M 43.265625 17.222656 C 43.265625 17.222656 43.398438 17.503906 43.792969 17.859375 C 44.027344 18.066406 44.351562 18.296875 44.792969 18.519531 C 45.164062 18.703125 45.507812 18.808594 45.808594 18.851562 C 46.46875 18.953125 46.894531 18.800781 46.894531 18.800781 C 46.976562 18.777344 47.019531 18.691406 46.996094 18.609375 C 46.972656 18.53125 46.886719 18.484375 46.804688 18.511719 C 46.804688 18.511719 46.4375 18.597656 45.871094 18.492188 C 45.605469 18.441406 45.296875 18.351562 44.960938 18.183594 C 44.636719 18.023438 44.378906 17.851562 44.171875 17.699219 C 43.714844 17.351562 43.535156 17.078125 43.535156 17.078125 C 43.492188 17.003906 43.398438 16.976562 43.328125 17.015625 C 43.25 17.058594 43.222656 17.152344 43.265625 17.222656 Z M 43.265625 17.222656 "/><path style=" stroke:none;fill-rule:evenodd;fill:#070000;fill-opacity:1;" d="M 42.695312 17.839844 C 42.695312 17.839844 42.824219 17.921875 43.03125 18 C 43.183594 18.058594 43.382812 18.109375 43.578125 18.144531 C 43.664062 18.160156 43.753906 18.171875 43.835938 18.175781 C 43.976562 18.175781 44.113281 18.160156 44.234375 18.128906 C 44.320312 18.113281 44.375 18.03125 44.359375 17.949219 C 44.34375 17.867188 44.265625 17.8125 44.179688 17.828125 C 44.097656 17.835938 44.007812 17.824219 43.917969 17.816406 C 43.828125 17.804688 43.734375 17.792969 43.644531 17.777344 C 43.464844 17.742188 43.292969 17.691406 43.152344 17.652344 C 42.957031 17.597656 42.820312 17.558594 42.820312 17.558594 C 42.742188 17.523438 42.648438 17.558594 42.617188 17.636719 C 42.582031 17.710938 42.617188 17.804688 42.695312 17.835938 Z M 42.695312 17.839844 "/><path style=" stroke:none;fill-rule:evenodd;fill:#070000;fill-opacity:1;" d="M 47.679688 12.4375 C 47.679688 12.4375 48.214844 13.125 48.921875 14.289062 C 49.402344 15.078125 49.964844 16.085938 50.484375 17.25 C 50.839844 18.054688 51.175781 18.929688 51.460938 19.859375 C 51.722656 20.722656 51.941406 21.632812 52.074219 22.574219 C 52.085938 22.65625 52.164062 22.714844 52.246094 22.703125 C 52.328125 22.695312 52.390625 22.617188 52.378906 22.535156 C 52.265625 21.574219 52.070312 20.640625 51.8125 19.757812 C 51.539062 18.808594 51.191406 17.914062 50.828125 17.097656 C 50.300781 15.917969 49.730469 14.894531 49.230469 14.101562 C 48.492188 12.925781 47.921875 12.246094 47.921875 12.246094 C 47.867188 12.179688 47.769531 12.167969 47.703125 12.222656 C 47.636719 12.273438 47.625 12.371094 47.679688 12.4375 Z M 47.679688 12.4375 "/><path style=" stroke:none;fill-rule:evenodd;fill:#070000;fill-opacity:1;" d="M 41.613281 10.417969 C 41.613281 10.417969 41.925781 10.621094 42.382812 10.910156 C 42.714844 11.121094 43.128906 11.375 43.535156 11.644531 C 43.746094 11.785156 43.960938 11.929688 44.160156 12.070312 C 44.382812 12.222656 44.59375 12.363281 44.777344 12.507812 C 44.839844 12.5625 44.9375 12.550781 44.992188 12.488281 C 45.046875 12.421875 45.039062 12.328125 44.972656 12.273438 C 44.796875 12.113281 44.59375 11.945312 44.375 11.777344 C 44.175781 11.625 43.960938 11.476562 43.746094 11.335938 C 43.332031 11.058594 42.917969 10.796875 42.574219 10.59375 C 42.105469 10.320312 41.765625 10.152344 41.765625 10.152344 C 41.691406 10.109375 41.597656 10.136719 41.554688 10.207031 C 41.511719 10.28125 41.539062 10.375 41.613281 10.417969 Z M 41.613281 10.417969 "/><path style=" stroke:none;fill-rule:evenodd;fill:#070000;fill-opacity:1;" d="M 40.246094 15.707031 C 40.246094 15.707031 39.964844 15.863281 39.5625 16.160156 C 39.285156 16.359375 38.957031 16.628906 38.613281 16.941406 C 38.371094 17.160156 38.121094 17.402344 37.886719 17.667969 C 37.664062 17.921875 37.453125 18.199219 37.265625 18.488281 C 37.214844 18.558594 37.234375 18.652344 37.304688 18.699219 C 37.375 18.75 37.46875 18.730469 37.515625 18.664062 C 37.714844 18.398438 37.9375 18.152344 38.160156 17.914062 C 38.394531 17.664062 38.632812 17.429688 38.867188 17.214844 C 39.203125 16.910156 39.523438 16.652344 39.78125 16.445312 C 40.164062 16.144531 40.414062 15.964844 40.414062 15.964844 C 40.484375 15.917969 40.507812 15.824219 40.460938 15.75 C 40.414062 15.679688 40.320312 15.660156 40.246094 15.707031 Z M 40.246094 15.707031 "/><path style=" stroke:none;fill-rule:evenodd;fill:#070000;fill-opacity:1;" d="M 38.808594 15.859375 C 38.808594 15.859375 38.683594 15.921875 38.519531 16.039062 C 38.398438 16.121094 38.261719 16.234375 38.121094 16.351562 C 38.050781 16.414062 37.980469 16.480469 37.914062 16.546875 C 37.84375 16.621094 37.785156 16.699219 37.730469 16.769531 C 37.671875 16.832031 37.675781 16.929688 37.738281 16.984375 C 37.800781 17.042969 37.898438 17.039062 37.953125 16.976562 C 38.027344 16.910156 38.117188 16.847656 38.203125 16.777344 C 38.300781 16.699219 38.398438 16.613281 38.492188 16.535156 C 38.601562 16.445312 38.707031 16.363281 38.789062 16.292969 C 38.914062 16.1875 38.988281 16.109375 38.988281 16.109375 C 39.058594 16.058594 39.074219 15.964844 39.023438 15.894531 C 38.972656 15.828125 38.878906 15.8125 38.808594 15.859375 Z M 38.808594 15.859375 "/><path style=" stroke:none;fill-rule:evenodd;fill:#070000;fill-opacity:1;" d="M 35.917969 28.617188 C 35.917969 28.617188 35.851562 28.125 35.8125 27.351562 C 35.789062 26.824219 35.777344 26.164062 35.820312 25.441406 C 35.851562 24.9375 35.914062 24.40625 36.011719 23.863281 C 36.097656 23.355469 36.210938 22.835938 36.382812 22.320312 C 36.410156 22.242188 36.367188 22.15625 36.285156 22.128906 C 36.207031 22.101562 36.121094 22.144531 36.09375 22.222656 C 35.898438 22.742188 35.75 23.273438 35.644531 23.796875 C 35.535156 24.351562 35.476562 24.902344 35.445312 25.417969 C 35.398438 26.160156 35.410156 26.832031 35.449219 27.371094 C 35.507812 28.167969 35.617188 28.667969 35.617188 28.667969 C 35.628906 28.753906 35.710938 28.808594 35.792969 28.792969 C 35.878906 28.777344 35.933594 28.699219 35.917969 28.617188 Z M 35.917969 28.617188 "/><path style=" stroke:none;fill-rule:evenodd;fill:#070000;fill-opacity:1;" d="M 48.296875 34.441406 C 48.296875 34.441406 48.59375 34.414062 48.992188 34.296875 C 49.285156 34.207031 49.632812 34.0625 49.960938 33.859375 C 50.09375 33.777344 50.230469 33.683594 50.347656 33.574219 C 50.527344 33.410156 50.683594 33.21875 50.800781 33 C 50.84375 32.929688 50.820312 32.835938 50.746094 32.792969 C 50.675781 32.75 50.582031 32.773438 50.539062 32.84375 C 50.441406 32.992188 50.316406 33.113281 50.1875 33.226562 C 50.054688 33.347656 49.910156 33.453125 49.761719 33.542969 C 49.460938 33.726562 49.140625 33.851562 48.875 33.945312 C 48.511719 34.074219 48.25 34.136719 48.25 34.136719 C 48.164062 34.148438 48.105469 34.230469 48.121094 34.3125 C 48.132812 34.394531 48.210938 34.453125 48.296875 34.441406 Z M 48.296875 34.441406 "/><path style=" stroke:none;fill-rule:evenodd;fill:#070000;fill-opacity:1;" d="M 47.046875 36.183594 C 47.046875 36.183594 47.214844 36.234375 47.484375 36.234375 C 47.660156 36.234375 47.882812 36.210938 48.121094 36.148438 C 48.28125 36.105469 48.457031 36.042969 48.625 35.953125 C 48.773438 35.871094 48.917969 35.765625 49.0625 35.636719 C 49.125 35.585938 49.136719 35.488281 49.085938 35.421875 C 49.035156 35.359375 48.9375 35.347656 48.871094 35.398438 C 48.761719 35.472656 48.652344 35.53125 48.542969 35.582031 C 48.363281 35.675781 48.1875 35.742188 48.023438 35.785156 C 47.816406 35.839844 47.625 35.863281 47.46875 35.871094 C 47.246094 35.890625 47.101562 35.882812 47.101562 35.882812 C 47.019531 35.867188 46.9375 35.921875 46.921875 36.003906 C 46.90625 36.085938 46.960938 36.167969 47.046875 36.183594 Z M 47.046875 36.183594 "/><path style=" stroke:none;fill-rule:evenodd;fill:#070000;fill-opacity:1;" d="M 49.777344 35.214844 C 49.777344 35.214844 50.300781 34.722656 50.699219 33.5 C 50.863281 33.003906 51 32.378906 51.070312 31.621094 C 51.15625 30.695312 51.15625 29.5625 50.953125 28.203125 C 50.851562 27.519531 50.699219 26.777344 50.488281 25.976562 C 50.46875 25.894531 50.386719 25.84375 50.304688 25.863281 C 50.222656 25.882812 50.171875 25.96875 50.191406 26.046875 C 50.375 26.84375 50.5 27.578125 50.589844 28.253906 C 50.765625 29.582031 50.78125 30.683594 50.699219 31.585938 C 50.628906 32.316406 50.496094 32.910156 50.351562 33.394531 C 50.003906 34.523438 49.558594 35 49.558594 35 C 49.496094 35.058594 49.496094 35.15625 49.558594 35.214844 C 49.617188 35.277344 49.714844 35.277344 49.777344 35.214844 Z M 49.777344 35.214844 "/><path style=" stroke:none;fill-rule:evenodd;fill:#070000;fill-opacity:1;" d="M 51.933594 34.042969 C 51.933594 34.042969 52.230469 33.773438 52.605469 33.195312 C 52.835938 32.839844 53.089844 32.363281 53.328125 31.769531 C 53.480469 31.398438 53.625 30.976562 53.742188 30.507812 C 53.839844 30.109375 53.917969 29.671875 53.976562 29.203125 C 53.988281 29.121094 53.933594 29.042969 53.847656 29.03125 C 53.765625 29.019531 53.6875 29.074219 53.675781 29.160156 C 53.59375 29.613281 53.492188 30.027344 53.382812 30.414062 C 53.257812 30.863281 53.125 31.269531 52.980469 31.632812 C 52.75 32.203125 52.507812 32.65625 52.296875 33.003906 C 51.964844 33.554688 51.714844 33.828125 51.714844 33.828125 C 51.65625 33.886719 51.65625 33.984375 51.714844 34.042969 C 51.777344 34.105469 51.871094 34.105469 51.933594 34.042969 Z M 51.933594 34.042969 "/><path style=" stroke:none;fill-rule:evenodd;fill:#070000;fill-opacity:1;" d="M 40.832031 34.101562 C 40.832031 34.101562 41.257812 34.261719 41.925781 34.355469 C 42.390625 34.425781 42.96875 34.457031 43.601562 34.394531 C 44.042969 34.351562 44.507812 34.269531 44.972656 34.105469 C 45.394531 33.957031 45.816406 33.75 46.222656 33.46875 C 46.292969 33.421875 46.3125 33.328125 46.265625 33.257812 C 46.21875 33.1875 46.125 33.167969 46.054688 33.214844 C 45.660156 33.457031 45.253906 33.628906 44.855469 33.757812 C 44.414062 33.898438 43.976562 33.984375 43.5625 34.023438 C 42.964844 34.082031 42.414062 34.046875 41.972656 33.996094 C 41.339844 33.925781 40.933594 33.8125 40.933594 33.8125 C 40.851562 33.785156 40.761719 33.828125 40.734375 33.910156 C 40.710938 33.988281 40.753906 34.074219 40.832031 34.101562 Z M 40.832031 34.101562 "/><path style=" stroke:none;fill-rule:evenodd;fill:#070000;fill-opacity:1;" d="M 41.722656 28.433594 C 41.722656 28.433594 41.722656 28.824219 41.65625 29.292969 C 41.628906 29.46875 41.597656 29.660156 41.542969 29.84375 C 41.460938 30.144531 41.339844 30.429688 41.132812 30.59375 C 41.058594 30.652344 41.039062 30.753906 41.085938 30.832031 C 41.085938 30.832031 41.511719 31.566406 42.320312 31.484375 C 42.648438 31.449219 43.046875 31.277344 43.503906 30.839844 C 43.566406 30.785156 43.570312 30.6875 43.511719 30.625 C 43.453125 30.5625 43.359375 30.558594 43.296875 30.617188 C 42.898438 30.960938 42.5625 31.097656 42.289062 31.117188 C 41.886719 31.144531 41.625 30.910156 41.5 30.761719 C 41.6875 30.550781 41.820312 30.257812 41.902344 29.941406 C 41.957031 29.742188 41.992188 29.53125 42.011719 29.335938 C 42.066406 28.835938 42.03125 28.421875 42.03125 28.421875 C 42.027344 28.335938 41.957031 28.273438 41.871094 28.277344 C 41.785156 28.28125 41.71875 28.351562 41.722656 28.4375 Z M 41.722656 28.433594 "/><path style=" stroke:none;fill-rule:evenodd;fill:#070000;fill-opacity:1;" d="M 44.597656 25.078125 C 44.597656 25.078125 44.867188 24.871094 45.300781 24.714844 C 45.519531 24.636719 45.777344 24.570312 46.070312 24.554688 C 46.269531 24.542969 46.476562 24.550781 46.703125 24.589844 C 46.992188 24.636719 47.308594 24.714844 47.648438 24.878906 C 47.738281 24.933594 47.855469 24.902344 47.910156 24.8125 C 47.964844 24.722656 47.933594 24.605469 47.84375 24.550781 C 47.488281 24.300781 47.148438 24.136719 46.820312 24.050781 C 46.546875 23.976562 46.28125 23.957031 46.039062 23.972656 C 45.671875 23.992188 45.351562 24.082031 45.089844 24.203125 C 44.570312 24.445312 44.296875 24.773438 44.296875 24.773438 C 44.210938 24.855469 44.210938 24.992188 44.292969 25.078125 C 44.378906 25.160156 44.515625 25.160156 44.597656 25.078125 Z M 44.597656 25.078125 "/><path style=" stroke:none;fill-rule:evenodd;fill:#070000;fill-opacity:1;" d="M 37.921875 25.574219 C 37.921875 25.574219 38.144531 25.347656 38.476562 25.136719 C 38.652344 25.027344 38.859375 24.921875 39.089844 24.871094 C 39.246094 24.832031 39.414062 24.820312 39.597656 24.84375 C 39.832031 24.871094 40.089844 24.945312 40.363281 25.128906 C 40.449219 25.195312 40.570312 25.179688 40.636719 25.097656 C 40.703125 25.015625 40.6875 24.894531 40.605469 24.828125 C 40.300781 24.539062 39.996094 24.375 39.699219 24.300781 C 39.441406 24.238281 39.1875 24.25 38.960938 24.300781 C 38.648438 24.371094 38.375 24.515625 38.15625 24.6875 C 37.777344 24.980469 37.574219 25.316406 37.574219 25.316406 C 37.503906 25.414062 37.523438 25.546875 37.621094 25.617188 C 37.714844 25.6875 37.851562 25.667969 37.921875 25.574219 Z M 37.921875 25.574219 "/><path style=" stroke:none;fill-rule:nonzero;fill:#000000;fill-opacity:1;" d="M 39.761719 27.539062 C 39.761719 27.738281 39.710938 27.90625 39.613281 28.046875 C 39.511719 28.191406 39.386719 28.261719 39.246094 28.261719 C 39.101562 28.261719 38.980469 28.191406 38.878906 28.046875 C 38.777344 27.90625 38.726562 27.738281 38.726562 27.539062 C 38.726562 27.339844 38.777344 27.167969 38.878906 27.027344 C 38.980469 26.886719 39.101562 26.816406 39.246094 26.816406 C 39.386719 26.816406 39.511719 26.886719 39.613281 27.027344 C 39.710938 27.167969 39.761719 27.339844 39.761719 27.539062 Z M 39.761719 27.539062 "/><path style=" stroke:none;fill-rule:evenodd;fill:#070000;fill-opacity:1;" d="M 39.246094 26.664062 C 39.070312 26.65625 38.902344 26.738281 38.777344 26.882812 C 38.636719 27.039062 38.546875 27.273438 38.542969 27.539062 C 38.539062 27.804688 38.628906 28.042969 38.761719 28.203125 C 38.890625 28.359375 39.058594 28.445312 39.246094 28.449219 C 39.425781 28.445312 39.597656 28.359375 39.726562 28.203125 C 39.859375 28.042969 39.949219 27.804688 39.949219 27.539062 C 39.941406 27.273438 39.851562 27.039062 39.710938 26.882812 C 39.582031 26.738281 39.421875 26.65625 39.246094 26.664062 Z M 39.246094 26.96875 C 39.347656 26.972656 39.429688 27.054688 39.492188 27.160156 C 39.550781 27.261719 39.582031 27.394531 39.578125 27.539062 C 39.578125 27.679688 39.539062 27.808594 39.480469 27.910156 C 39.421875 28.003906 39.339844 28.074219 39.246094 28.074219 C 39.148438 28.074219 39.066406 28.003906 39.007812 27.910156 C 38.945312 27.808594 38.910156 27.679688 38.910156 27.539062 C 38.90625 27.394531 38.9375 27.261719 38.996094 27.160156 C 39.054688 27.054688 39.136719 26.972656 39.246094 26.96875 Z M 39.246094 26.96875 "/><path style=" stroke:none;fill-rule:nonzero;fill:#000000;fill-opacity:1;" d="M 46.953125 27.308594 C 46.953125 27.507812 46.902344 27.679688 46.800781 27.820312 C 46.699219 27.960938 46.574219 28.03125 46.433594 28.03125 C 46.289062 28.03125 46.167969 27.960938 46.066406 27.820312 C 45.964844 27.679688 45.914062 27.507812 45.914062 27.308594 C 45.914062 27.109375 45.964844 26.9375 46.066406 26.796875 C 46.167969 26.65625 46.289062 26.585938 46.433594 26.585938 C 46.574219 26.585938 46.699219 26.65625 46.800781 26.796875 C 46.902344 26.9375 46.953125 27.109375 46.953125 27.308594 Z M 46.953125 27.308594 "/><path style=" stroke:none;fill-rule:evenodd;fill:#070000;fill-opacity:1;" d="M 46.433594 26.433594 C 46.257812 26.425781 46.089844 26.511719 45.964844 26.652344 C 45.824219 26.808594 45.734375 27.042969 45.730469 27.308594 C 45.726562 27.574219 45.816406 27.8125 45.949219 27.976562 C 46.078125 28.128906 46.25 28.21875 46.433594 28.21875 C 46.613281 28.21875 46.785156 28.128906 46.914062 27.976562 C 47.046875 27.8125 47.136719 27.574219 47.136719 27.308594 C 47.128906 27.042969 47.039062 26.808594 46.898438 26.652344 C 46.773438 26.507812 46.609375 26.425781 46.433594 26.433594 Z M 46.433594 26.738281 C 46.539062 26.742188 46.621094 26.824219 46.679688 26.929688 C 46.738281 27.035156 46.769531 27.164062 46.765625 27.308594 C 46.765625 27.449219 46.730469 27.578125 46.667969 27.679688 C 46.609375 27.773438 46.527344 27.84375 46.433594 27.84375 C 46.335938 27.84375 46.253906 27.773438 46.195312 27.679688 C 46.132812 27.578125 46.097656 27.449219 46.097656 27.308594 C 46.09375 27.164062 46.125 27.03125 46.183594 26.929688 C 46.242188 26.824219 46.324219 26.742188 46.433594 26.738281 Z M 46.433594 26.738281 "/><path style=" stroke:none;fill-rule:evenodd;fill:#070000;fill-opacity:1;" d="M 31.480469 35.785156 C 31.480469 35.785156 31.925781 35.339844 32.648438 34.980469 C 33.027344 34.792969 33.484375 34.628906 33.996094 34.574219 C 34.527344 34.515625 35.054688 34.601562 35.515625 34.726562 C 36.339844 34.953125 36.949219 35.3125 36.949219 35.3125 C 37.019531 35.359375 37.113281 35.335938 37.160156 35.265625 C 37.203125 35.195312 37.183594 35.101562 37.109375 35.054688 L 36.230469 34.613281 C 36.042969 34.535156 35.832031 34.460938 35.605469 34.398438 C 35.109375 34.261719 34.535156 34.175781 33.960938 34.242188 C 33.40625 34.304688 32.910156 34.480469 32.5 34.695312 C 31.734375 35.089844 31.273438 35.59375 31.273438 35.59375 C 31.222656 35.648438 31.226562 35.738281 31.28125 35.789062 C 31.335938 35.84375 31.425781 35.839844 31.480469 35.785156 Z M 31.480469 35.785156 "/><path style=" stroke:none;fill-rule:evenodd;fill:#070000;fill-opacity:1;" d="M 31.144531 44.140625 C 31.144531 44.140625 31.5 44.070312 32.054688 44.007812 C 32.320312 43.976562 32.632812 43.941406 32.976562 43.921875 C 33.289062 43.902344 33.636719 43.914062 33.976562 43.9375 C 34.183594 43.949219 34.390625 43.96875 34.578125 43.988281 C 35.09375 44.039062 35.480469 44.089844 35.480469 44.089844 C 35.5625 44.105469 35.644531 44.046875 35.65625 43.964844 C 35.671875 43.882812 35.617188 43.804688 35.53125 43.789062 C 35.53125 43.789062 35.214844 43.726562 34.765625 43.667969 C 34.609375 43.648438 34.433594 43.628906 34.253906 43.617188 C 33.828125 43.582031 33.363281 43.5625 32.953125 43.589844 C 32.605469 43.617188 32.285156 43.648438 32.011719 43.6875 C 31.445312 43.773438 31.082031 43.867188 31.082031 43.867188 C 31.007812 43.886719 30.960938 43.960938 30.976562 44.035156 C 30.996094 44.109375 31.070312 44.15625 31.144531 44.140625 Z M 31.144531 44.140625 "/><path style=" stroke:none;fill-rule:evenodd;fill:#070000;fill-opacity:1;" d="M 48.878906 46.167969 C 48.878906 46.167969 49.222656 45.902344 49.691406 45.492188 C 50.039062 45.1875 50.453125 44.804688 50.851562 44.402344 C 51.0625 44.191406 51.269531 43.976562 51.460938 43.761719 C 51.667969 43.519531 51.855469 43.28125 52.011719 43.054688 C 52.0625 42.988281 52.046875 42.894531 51.976562 42.84375 C 51.90625 42.796875 51.8125 42.8125 51.761719 42.878906 C 51.605469 43.089844 51.414062 43.308594 51.207031 43.535156 C 51.015625 43.742188 50.816406 43.957031 50.609375 44.167969 C 50.214844 44.566406 49.808594 44.945312 49.476562 45.25 C 49.023438 45.667969 48.699219 45.957031 48.699219 45.957031 C 48.640625 46.003906 48.632812 46.09375 48.679688 46.152344 C 48.730469 46.210938 48.820312 46.21875 48.878906 46.167969 Z M 48.878906 46.167969 "/></g></svg>