<svg xmlns="http://www.w3.org/2000/svg" xmlns:xlink="http://www.w3.org/1999/xlink" width="110" zoomAndPan="magnify" viewBox="0 0 82.5 82.499998" height="110" preserveAspectRatio="xMidYMid meet" version="1.2"><defs><clipPath id="8faa0c835f"><path d="M 0 0 L 82.003906 0 L 82.003906 82.003906 L 0 82.003906 Z M 0 0 "/></clipPath><clipPath id="ba0be441af"><path d="M 8.199219 4.84375 L 76.039062 4.84375 L 76.039062 70 L 8.199219 70 Z M 8.199219 4.84375 "/></clipPath><clipPath id="40a2ccdb29"><path d="M 43 65 L 50 65 L 50 74.171875 L 43 74.171875 Z M 43 65 "/></clipPath></defs><g id="e79f7a5c68"><g clip-rule="nonzero" clip-path="url(#8faa0c835f)"><path style=" stroke:none;fill-rule:nonzero;fill:#ffffff;fill-opacity:1;" d="M 0 0 L 82.003906 0 L 82.003906 82.003906 L 0 82.003906 Z M 0 0 "/><path style=" stroke:none;fill-rule:nonzero;fill:#ffffff;fill-opacity:1;" d="M 0 0 L 82.003906 0 L 82.003906 82.003906 L 0 82.003906 Z M 0 0 "/></g><path style=" stroke:none;fill-rule:nonzero;fill:#203a72;fill-opacity:1;" d="M 60.664062 37.355469 C 60.085938 36.773438 59.4375 36.480469 58.714844 36.335938 C 58.859375 35.242188 58.496094 34.148438 57.703125 33.347656 C 57.199219 32.835938 56.476562 32.472656 55.828125 32.328125 C 55.828125 32.179688 55.902344 31.960938 55.902344 31.816406 C 55.902344 30.867188 55.539062 29.921875 54.816406 29.265625 C 54.457031 28.898438 54.097656 28.679688 53.664062 28.460938 L 57.488281 24.597656 C 58.859375 23.214844 58.859375 20.882812 57.488281 19.496094 C 56.117188 18.109375 53.808594 18.109375 52.4375 19.496094 L 39.089844 32.910156 C 38.585938 31.816406 37.71875 30.359375 36.636719 29.046875 C 35.914062 28.171875 34.976562 27.296875 33.894531 26.496094 C 32.234375 25.328125 30.070312 25.328125 28.484375 26.496094 C 27.183594 27.441406 26.824219 29.191406 27.691406 30.578125 L 29.636719 33.640625 C 30.648438 35.242188 31.226562 37.136719 31.152344 39.105469 L 31.007812 45.011719 C 31.007812 45.59375 30.792969 46.105469 30.359375 46.542969 L 27.691406 49.238281 C 27.257812 49.675781 27.257812 50.40625 27.691406 50.84375 C 27.90625 51.0625 28.195312 51.207031 28.484375 51.207031 C 28.773438 51.207031 29.058594 51.0625 29.277344 50.84375 L 31.945312 48.144531 C 32.738281 47.34375 33.246094 46.25 33.246094 45.085938 L 33.390625 39.179688 C 33.460938 36.773438 32.8125 34.441406 31.511719 32.472656 L 29.566406 29.335938 C 29.347656 28.972656 29.421875 28.535156 29.78125 28.316406 C 30.574219 27.734375 31.730469 27.734375 32.597656 28.316406 C 33.535156 28.972656 34.328125 29.703125 34.90625 30.429688 C 36.636719 32.617188 37.71875 35.242188 37.71875 35.242188 C 37.863281 35.605469 38.152344 35.824219 38.511719 35.898438 C 38.871094 35.972656 39.234375 35.824219 39.523438 35.605469 L 53.953125 21.027344 C 54.457031 20.515625 55.324219 20.515625 55.828125 21.027344 C 56.332031 21.535156 56.332031 22.410156 55.828125 22.921875 L 44.789062 34.148438 C 43.921875 35.023438 43.5625 36.261719 43.777344 37.429688 C 44.789062 42.3125 41.183594 44.5 40.964844 44.648438 C 40.460938 44.9375 40.242188 45.667969 40.53125 46.179688 C 40.75 46.542969 41.109375 46.761719 41.542969 46.761719 C 41.757812 46.761719 41.902344 46.6875 42.121094 46.617188 C 43.5625 45.8125 45.726562 43.554688 46.160156 40.199219 C 46.519531 40.347656 46.953125 40.417969 47.316406 40.417969 C 47.457031 40.417969 47.675781 40.417969 47.820312 40.347656 C 47.964844 41.074219 48.253906 41.730469 48.828125 42.242188 C 49.550781 42.96875 50.417969 43.335938 51.355469 43.335938 C 51.5 43.335938 51.644531 43.335938 51.789062 43.261719 C 51.933594 43.992188 52.222656 44.71875 52.796875 45.230469 C 53.160156 45.59375 53.664062 45.886719 54.097656 46.03125 C 52.222656 48.65625 49.984375 51.136719 48.253906 52.8125 C 46.738281 54.269531 44.644531 54.851562 42.625 54.414062 L 41.398438 54.125 C 41.039062 54.050781 40.605469 54.125 40.316406 54.414062 L 36.5625 58.207031 C 36.132812 58.644531 36.132812 59.375 36.5625 59.8125 C 36.78125 60.027344 37.070312 60.175781 37.359375 60.175781 C 37.644531 60.175781 37.933594 60.027344 38.152344 59.8125 L 41.46875 56.457031 L 42.046875 56.601562 C 44.863281 57.257812 47.746094 56.457031 49.769531 54.414062 C 51.859375 52.375 54.746094 49.167969 56.839844 45.8125 C 57.199219 45.667969 57.488281 45.449219 57.777344 45.15625 L 60.445312 42.460938 C 61.09375 41.804688 61.527344 40.855469 61.527344 39.910156 C 61.671875 38.960938 61.3125 38.085938 60.664062 37.355469 Z M 48.324219 37.648438 C 47.820312 38.160156 46.953125 38.160156 46.449219 37.648438 C 45.945312 37.136719 45.945312 36.261719 46.449219 35.753906 L 51.28125 30.867188 C 51.789062 30.359375 52.652344 30.359375 53.160156 30.867188 C 53.449219 31.160156 53.519531 31.453125 53.519531 31.816406 C 53.519531 32.179688 53.375 32.546875 53.160156 32.765625 Z M 52.363281 40.636719 C 51.859375 41.148438 50.996094 41.148438 50.488281 40.636719 C 49.984375 40.128906 49.984375 39.253906 50.488281 38.742188 L 54.167969 35.023438 C 54.457031 34.730469 54.746094 34.660156 55.105469 34.660156 C 55.46875 34.660156 55.828125 34.804688 56.042969 35.023438 C 56.550781 35.535156 56.550781 36.410156 56.042969 36.917969 Z M 59.074219 40.929688 L 56.40625 43.625 C 55.902344 44.136719 55.035156 44.136719 54.53125 43.625 C 54.023438 43.117188 54.023438 42.242188 54.53125 41.730469 L 57.269531 38.960938 C 57.777344 38.449219 58.640625 38.449219 59.148438 38.960938 C 59.4375 39.253906 59.507812 39.542969 59.507812 39.910156 C 59.4375 40.347656 59.292969 40.636719 59.074219 40.929688 Z M 59.074219 40.929688 "/><path style=" stroke:none;fill-rule:nonzero;fill:#14a0de;fill-opacity:1;" d="M 38.367188 20.515625 C 39.015625 20.515625 39.523438 20.007812 39.523438 19.351562 L 39.523438 16.214844 C 39.523438 15.558594 39.015625 15.046875 38.367188 15.046875 C 37.71875 15.046875 37.214844 15.558594 37.214844 16.214844 L 37.214844 19.351562 C 37.214844 20.007812 37.71875 20.515625 38.367188 20.515625 Z M 38.367188 20.515625 "/><path style=" stroke:none;fill-rule:nonzero;fill:#14a0de;fill-opacity:1;" d="M 32.667969 22.191406 C 32.882812 22.410156 33.171875 22.558594 33.460938 22.558594 C 33.75 22.558594 34.039062 22.410156 34.253906 22.191406 C 34.6875 21.753906 34.6875 21.027344 34.253906 20.589844 L 32.089844 18.402344 C 31.65625 17.964844 30.9375 17.964844 30.503906 18.402344 C 30.070312 18.839844 30.070312 19.570312 30.503906 20.007812 Z M 32.667969 22.191406 "/><path style=" stroke:none;fill-rule:nonzero;fill:#14a0de;fill-opacity:1;" d="M 43.273438 22.558594 C 43.5625 22.558594 43.851562 22.410156 44.066406 22.191406 L 46.230469 20.007812 C 46.664062 19.570312 46.664062 18.839844 46.230469 18.402344 C 45.800781 17.964844 45.078125 17.964844 44.644531 18.402344 L 42.480469 20.589844 C 42.046875 21.027344 42.046875 21.753906 42.480469 22.191406 C 42.695312 22.410156 42.984375 22.558594 43.273438 22.558594 Z M 43.273438 22.558594 "/><g clip-rule="nonzero" clip-path="url(#ba0be441af)"><path style=" stroke:none;fill-rule:nonzero;fill:#203a72;fill-opacity:1;" d="M 42.121094 4.84375 C 23.433594 4.84375 8.207031 20.226562 8.207031 39.105469 C 8.207031 51.792969 15.0625 62.871094 25.238281 68.777344 L 25.238281 66.082031 C 16.289062 60.464844 10.445312 50.480469 10.445312 39.105469 C 10.445312 21.464844 24.660156 7.101562 42.121094 7.101562 C 59.582031 7.101562 73.792969 21.464844 73.792969 39.105469 C 73.792969 49.894531 68.453125 59.445312 60.375 65.277344 L 59.722656 66.589844 C 59.292969 67.539062 58.785156 68.414062 58.28125 69.289062 C 68.816406 63.527344 76.03125 52.15625 76.03125 39.105469 C 76.03125 20.226562 60.808594 4.84375 42.121094 4.84375 Z M 42.121094 4.84375 "/></g><path style=" stroke:none;fill-rule:nonzero;fill:#14a0de;fill-opacity:1;" d="M 27.546875 73.953125 L 27.546875 65.496094 L 33.171875 65.496094 L 33.171875 67.101562 L 29.421875 67.101562 L 29.421875 68.777344 L 32.738281 68.777344 L 32.738281 70.308594 L 29.421875 70.308594 L 29.421875 72.351562 L 33.460938 72.351562 L 33.460938 73.953125 Z M 27.546875 73.953125 "/><path style=" stroke:none;fill-rule:nonzero;fill:#14a0de;fill-opacity:1;" d="M 40.460938 73.953125 C 40.386719 73.660156 40.242188 73.371094 40.171875 73.078125 C 40.097656 72.789062 39.957031 72.496094 39.882812 72.132812 L 36.636719 72.132812 C 36.5625 72.421875 36.417969 72.714844 36.347656 73.078125 C 36.277344 73.371094 36.132812 73.660156 36.058594 73.953125 L 34.109375 73.953125 C 34.398438 73.078125 34.6875 72.203125 34.976562 71.402344 C 35.265625 70.601562 35.554688 69.871094 35.769531 69.214844 C 36.058594 68.558594 36.277344 67.902344 36.5625 67.246094 C 36.851562 66.664062 37.070312 66.007812 37.359375 65.425781 L 39.160156 65.425781 C 39.449219 66.007812 39.738281 66.589844 39.957031 67.246094 C 40.242188 67.828125 40.460938 68.484375 40.75 69.214844 C 41.039062 69.871094 41.324219 70.601562 41.613281 71.402344 C 41.902344 72.203125 42.191406 73.003906 42.480469 73.953125 Z M 38.222656 67.390625 C 38.152344 67.539062 38.152344 67.683594 38.007812 67.902344 C 37.933594 68.121094 37.863281 68.339844 37.71875 68.632812 C 37.644531 68.921875 37.503906 69.214844 37.359375 69.578125 C 37.214844 69.945312 37.070312 70.234375 36.996094 70.601562 L 39.378906 70.601562 C 39.234375 70.234375 39.160156 69.871094 39.015625 69.578125 C 38.871094 69.214844 38.800781 68.921875 38.65625 68.632812 C 38.585938 68.339844 38.441406 68.121094 38.367188 67.902344 C 38.296875 67.683594 38.222656 67.539062 38.222656 67.390625 Z M 38.222656 67.390625 "/><g clip-rule="nonzero" clip-path="url(#40a2ccdb29)"><path style=" stroke:none;fill-rule:nonzero;fill:#14a0de;fill-opacity:1;" d="M 46.015625 72.496094 C 46.304688 72.496094 46.519531 72.496094 46.664062 72.421875 C 46.808594 72.351562 46.953125 72.351562 47.097656 72.203125 C 47.171875 72.132812 47.242188 72.058594 47.316406 71.914062 C 47.386719 71.839844 47.386719 71.695312 47.386719 71.546875 C 47.386719 71.257812 47.242188 71.039062 47.027344 70.890625 C 46.738281 70.671875 46.304688 70.527344 45.726562 70.308594 C 45.4375 70.234375 45.148438 70.089844 44.933594 69.945312 C 44.644531 69.796875 44.429688 69.652344 44.210938 69.433594 C 43.996094 69.214844 43.851562 68.996094 43.707031 68.703125 C 43.5625 68.414062 43.492188 68.121094 43.492188 67.683594 C 43.492188 67.320312 43.5625 66.953125 43.707031 66.664062 C 43.851562 66.371094 44.066406 66.082031 44.355469 65.863281 C 44.644531 65.644531 44.933594 65.496094 45.292969 65.351562 C 45.65625 65.207031 46.089844 65.207031 46.59375 65.207031 C 47.171875 65.207031 47.675781 65.277344 48.035156 65.425781 C 48.46875 65.570312 48.757812 65.714844 49.046875 65.863281 L 48.46875 67.390625 C 48.253906 67.246094 47.964844 67.171875 47.675781 67.101562 C 47.386719 67.027344 47.027344 66.953125 46.664062 66.953125 C 46.230469 66.953125 45.871094 67.027344 45.726562 67.171875 C 45.511719 67.320312 45.4375 67.464844 45.4375 67.757812 C 45.4375 67.902344 45.511719 68.046875 45.582031 68.121094 C 45.65625 68.195312 45.726562 68.339844 45.871094 68.414062 C 46.015625 68.484375 46.160156 68.558594 46.304688 68.632812 C 46.449219 68.703125 46.664062 68.777344 46.882812 68.851562 C 47.316406 68.996094 47.675781 69.140625 48.035156 69.359375 C 48.324219 69.507812 48.613281 69.726562 48.828125 69.945312 C 49.046875 70.164062 49.191406 70.382812 49.335938 70.671875 C 49.40625 70.964844 49.480469 71.328125 49.480469 71.695312 C 49.480469 72.496094 49.191406 73.078125 48.683594 73.515625 C 48.109375 73.953125 47.316406 74.171875 46.230469 74.171875 C 45.871094 74.171875 45.511719 74.171875 45.222656 74.097656 C 44.933594 74.027344 44.644531 74.027344 44.429688 73.953125 C 44.210938 73.878906 43.996094 73.808594 43.851562 73.734375 C 43.707031 73.660156 43.5625 73.589844 43.417969 73.515625 L 43.921875 71.984375 C 44.140625 72.132812 44.5 72.277344 44.863281 72.351562 C 45.078125 72.421875 45.511719 72.496094 46.015625 72.496094 Z M 46.015625 72.496094 "/></g><path style=" stroke:none;fill-rule:nonzero;fill:#14a0de;fill-opacity:1;" d="M 53.734375 68.921875 C 54.097656 68.339844 54.386719 67.757812 54.675781 67.171875 C 54.960938 66.589844 55.25 66.007812 55.539062 65.425781 L 57.632812 65.425781 C 57.199219 66.300781 56.695312 67.246094 56.1875 68.046875 C 55.683594 68.921875 55.179688 69.726562 54.601562 70.601562 L 54.601562 73.808594 L 52.726562 73.808594 L 52.726562 70.601562 C 52.148438 69.726562 51.644531 68.851562 51.136719 68.046875 C 50.632812 67.171875 50.199219 66.300781 49.695312 65.425781 L 51.859375 65.425781 C 52.148438 66.007812 52.363281 66.589844 52.726562 67.171875 C 53.085938 67.828125 53.375 68.339844 53.734375 68.921875 Z M 53.734375 68.921875 "/></g></svg>