<svg xmlns="http://www.w3.org/2000/svg" xmlns:xlink="http://www.w3.org/1999/xlink" width="110" zoomAndPan="magnify" viewBox="0 0 82.5 82.499998" height="110" preserveAspectRatio="xMidYMid meet" version="1.2"><defs><clipPath id="fdab207f58"><path d="M 0 0 L 82.003906 0 L 82.003906 82.003906 L 0 82.003906 Z M 0 0 "/></clipPath><clipPath id="a87505c59f"><path d="M 12.234375 50 L 69.636719 50 L 69.636719 76.890625 L 12.234375 76.890625 Z M 12.234375 50 "/></clipPath><clipPath id="aea9f5a0f3"><path d="M 61 50 L 69.636719 50 L 69.636719 76.890625 L 61 76.890625 Z M 61 50 "/></clipPath><clipPath id="dc2f4d08e8"><path d="M 36 5.324219 L 39 5.324219 L 39 12 L 36 12 Z M 36 5.324219 "/></clipPath></defs><g id="d870a9fc07"><g clip-rule="nonzero" clip-path="url(#fdab207f58)"><path style=" stroke:none;fill-rule:nonzero;fill:#ffffff;fill-opacity:1;" d="M 0 0 L 82.003906 0 L 82.003906 82.003906 L 0 82.003906 Z M 0 0 "/><path style=" stroke:none;fill-rule:nonzero;fill:#ffffff;fill-opacity:1;" d="M 0 0 L 82.003906 0 L 82.003906 82.003906 L 0 82.003906 Z M 0 0 "/></g><g clip-rule="nonzero" clip-path="url(#a87505c59f)"><path style=" stroke:none;fill-rule:nonzero;fill:#f58a97;fill-opacity:1;" d="M 65.40625 76.875 L 16.464844 76.875 C 14.128906 76.875 12.238281 74.972656 12.238281 72.625 L 12.238281 54.605469 C 12.238281 52.257812 14.128906 50.351562 16.464844 50.351562 L 65.40625 50.351562 C 67.742188 50.351562 69.636719 52.257812 69.636719 54.605469 L 69.636719 72.625 C 69.636719 74.972656 67.742188 76.875 65.40625 76.875 Z M 65.40625 76.875 "/></g><g clip-rule="nonzero" clip-path="url(#aea9f5a0f3)"><path style=" stroke:none;fill-rule:nonzero;fill:#f07281;fill-opacity:1;" d="M 65.40625 50.351562 L 61.175781 50.351562 C 63.511719 50.351562 65.40625 52.257812 65.40625 54.605469 L 65.40625 72.625 C 65.40625 74.972656 63.511719 76.875 61.175781 76.875 L 65.40625 76.875 C 67.742188 76.875 69.636719 74.972656 69.636719 72.625 L 69.636719 54.605469 C 69.636719 52.257812 67.742188 50.351562 65.40625 50.351562 Z M 65.40625 50.351562 "/></g><path style=" stroke:none;fill-rule:nonzero;fill:#ffffff;fill-opacity:1;" d="M 25.792969 59.5 C 26.378906 59.5 26.851562 59.023438 26.851562 58.4375 C 26.851562 57.851562 26.378906 57.375 25.792969 57.375 L 21.386719 57.375 C 20.804688 57.375 20.332031 57.851562 20.332031 58.4375 L 20.332031 68.839844 C 20.332031 69.425781 20.804688 69.902344 21.386719 69.902344 L 25.792969 69.902344 C 26.378906 69.902344 26.851562 69.425781 26.851562 68.839844 C 26.851562 68.25 26.378906 67.773438 25.792969 67.773438 L 22.445312 67.773438 L 22.445312 64.722656 L 25.46875 64.722656 C 26.054688 64.722656 26.527344 64.25 26.527344 63.660156 C 26.527344 63.074219 26.054688 62.597656 25.46875 62.597656 L 22.445312 62.597656 L 22.445312 59.5 Z M 25.792969 59.5 "/><path style=" stroke:none;fill-rule:nonzero;fill:#ffffff;fill-opacity:1;" d="M 35.671875 58.171875 C 35.667969 58.164062 35.664062 58.152344 35.660156 58.144531 C 35.464844 57.648438 34.996094 57.328125 34.46875 57.328125 C 33.9375 57.328125 33.46875 57.648438 33.273438 58.148438 C 33.269531 58.15625 33.269531 58.164062 33.265625 58.171875 L 29.5 68.472656 C 29.296875 69.023438 29.578125 69.632812 30.125 69.835938 C 30.675781 70.039062 31.28125 69.753906 31.484375 69.203125 L 32.167969 67.335938 L 36.742188 67.335938 L 37.417969 69.203125 C 37.621094 69.761719 38.238281 70.035156 38.773438 69.835938 C 39.324219 69.636719 39.605469 69.027344 39.40625 68.472656 Z M 32.945312 65.210938 L 34.464844 61.050781 L 35.972656 65.210938 Z M 32.945312 65.210938 "/><path style=" stroke:none;fill-rule:nonzero;fill:#ffffff;fill-opacity:1;" d="M 47.773438 62.703125 C 46.507812 62.21875 45.335938 61.691406 45.007812 61.539062 C 44.734375 61.320312 44.601562 60.972656 44.65625 60.59375 C 44.691406 60.363281 44.851562 59.804688 45.601562 59.570312 C 47.109375 59.097656 48.488281 60.242188 48.519531 60.269531 C 48.960938 60.652344 49.625 60.601562 50.007812 60.164062 C 50.390625 59.71875 50.34375 59.046875 49.90625 58.664062 C 49.8125 58.582031 47.628906 56.707031 44.972656 57.539062 C 43.675781 57.945312 42.753906 58.996094 42.566406 60.285156 C 42.386719 61.5 42.894531 62.671875 43.882812 63.34375 C 44.273438 63.609375 45.1875 63.988281 47.015625 64.6875 C 48.066406 65.089844 48.59375 65.71875 48.464844 66.40625 C 48.34375 67.070312 47.621094 67.773438 46.523438 67.773438 C 45.476562 67.773438 44.46875 67.332031 43.824219 66.589844 C 43.4375 66.148438 42.769531 66.101562 42.332031 66.488281 C 41.890625 66.875 41.847656 67.546875 42.230469 67.988281 C 43.273438 69.1875 44.878906 69.902344 46.523438 69.902344 C 48.523438 69.902344 50.214844 68.59375 50.546875 66.792969 C 50.796875 65.425781 50.199219 63.636719 47.773438 62.703125 Z M 47.773438 62.703125 "/><path style=" stroke:none;fill-rule:nonzero;fill:#ffffff;fill-opacity:1;" d="M 61.0625 57.589844 C 60.574219 57.269531 59.917969 57.410156 59.597656 57.902344 L 57.210938 61.585938 L 54.796875 57.875 C 54.480469 57.382812 53.824219 57.242188 53.335938 57.566406 C 52.847656 57.886719 52.707031 58.542969 53.027344 59.035156 L 56.15625 63.847656 L 56.140625 68.835938 C 56.140625 69.421875 56.613281 69.898438 57.195312 69.902344 L 57.199219 69.902344 C 57.78125 69.902344 58.257812 69.425781 58.257812 68.839844 L 58.269531 63.851562 L 61.371094 59.058594 C 61.691406 58.570312 61.550781 57.910156 61.0625 57.589844 Z M 61.0625 57.589844 "/><path style=" stroke:none;fill-rule:nonzero;fill:#ffdfcf;fill-opacity:1;" d="M 51.722656 38.636719 L 55.183594 33.980469 C 56.25 32.539062 58.34375 32.292969 59.859375 33.429688 C 61.375 34.566406 61.734375 36.652344 60.667969 38.09375 L 53.222656 48.121094 C 49.125 53.640625 41.96875 55.890625 35.476562 53.703125 C 30.425781 52 26.5625 47.863281 25.191406 42.6875 L 20.695312 25.675781 C 19.945312 23.210938 23.488281 18.664062 25.800781 21.65625 L 31.148438 28.960938 C 31.621094 29.609375 32.574219 29.652344 33.035156 29.046875 L 49.070312 7.707031 C 50.140625 6.265625 52.234375 6.019531 53.75 7.15625 C 55.265625 8.292969 55.625 10.382812 54.554688 11.820312 L 44.019531 26.011719 L 54.539062 34.847656 Z M 51.722656 38.636719 "/><path style=" stroke:none;fill-rule:nonzero;fill:#ffcebf;fill-opacity:1;" d="M 43.167969 26.011719 C 43.703125 26.011719 44.207031 25.757812 44.527344 25.328125 L 54.558594 11.820312 C 55.625 10.378906 55.265625 8.292969 53.75 7.15625 C 52.441406 6.175781 50.699219 6.226562 49.558594 7.1875 C 51.042969 8.328125 51.386719 10.394531 50.328125 11.820312 L 41.8125 23.289062 C 40.976562 24.414062 41.773438 26.011719 43.167969 26.011719 Z M 43.167969 26.011719 "/><path style=" stroke:none;fill-rule:nonzero;fill:#ffcebf;fill-opacity:1;" d="M 59.859375 33.429688 C 58.550781 32.449219 56.808594 32.5 55.671875 33.460938 C 57.152344 34.601562 57.496094 36.667969 56.4375 38.09375 L 48.992188 48.121094 C 46.382812 51.636719 42.53125 53.828125 38.398438 54.386719 C 44.027344 55.148438 49.734375 52.820312 53.222656 48.121094 L 60.667969 38.09375 C 61.734375 36.652344 61.375 34.566406 59.859375 33.429688 Z M 59.859375 33.429688 "/><path style=" stroke:none;fill-rule:nonzero;fill:#ffcebf;fill-opacity:1;" d="M 31.148438 28.960938 L 25.800781 21.65625 C 24.53125 20.011719 22.890625 20.644531 21.792969 21.953125 L 26.191406 28.132812 C 27.332031 29.734375 29.550781 30.105469 31.148438 28.960938 Z M 31.148438 28.960938 "/><path style=" stroke:none;fill-rule:nonzero;fill:#ffdfcf;fill-opacity:1;" d="M 43.539062 26.660156 L 45.90625 23.472656 C 46.972656 22.03125 49.066406 21.785156 50.582031 22.921875 C 52.097656 24.058594 52.457031 26.148438 51.390625 27.585938 L 48.609375 31.332031 Z M 43.539062 26.660156 "/><path style=" stroke:none;fill-rule:nonzero;fill:#ffcebf;fill-opacity:1;" d="M 50.582031 22.921875 C 49.273438 21.941406 47.53125 21.992188 46.390625 22.953125 C 47.875 24.097656 48.21875 26.160156 47.160156 27.585938 L 45.601562 29.671875 C 45.082031 30.363281 45.160156 31.328125 45.777344 31.929688 C 46.515625 32.644531 47.707031 32.546875 48.320312 31.71875 L 51.390625 27.585938 C 52.457031 26.148438 52.097656 24.058594 50.582031 22.921875 Z M 50.582031 22.921875 "/><path style=" stroke:none;fill-rule:nonzero;fill:#ffdfcf;fill-opacity:1;" d="M 47.167969 33.273438 L 50.425781 28.886719 C 51.492188 27.445312 53.585938 27.199219 55.101562 28.335938 C 56.617188 29.472656 56.976562 31.558594 55.910156 33 L 52.589844 37.46875 Z M 47.167969 33.273438 "/><path style=" stroke:none;fill-rule:nonzero;fill:#ffcebf;fill-opacity:1;" d="M 55.101562 28.335938 C 53.792969 27.355469 52.050781 27.40625 50.914062 28.367188 C 52.394531 29.507812 52.738281 31.574219 51.679688 33 L 50.046875 35.195312 C 49.492188 35.9375 49.628906 36.984375 50.355469 37.558594 C 51.105469 38.148438 52.191406 38.003906 52.761719 37.238281 L 55.910156 33 C 56.976562 31.5625 56.617188 29.472656 55.101562 28.335938 Z M 55.101562 28.335938 "/><g clip-rule="nonzero" clip-path="url(#dc2f4d08e8)"><path style=" stroke:none;fill-rule:nonzero;fill:#f58a97;fill-opacity:1;" d="M 36.585938 10.265625 L 36.28125 6.527344 C 36.234375 5.945312 36.667969 5.429688 37.25 5.382812 C 37.828125 5.335938 38.34375 5.769531 38.390625 6.355469 L 38.695312 10.089844 C 38.742188 10.675781 38.308594 11.191406 37.726562 11.238281 C 37.152344 11.285156 36.632812 10.851562 36.585938 10.265625 Z M 36.585938 10.265625 "/></g><path style=" stroke:none;fill-rule:nonzero;fill:#f58a97;fill-opacity:1;" d="M 29.3125 17.007812 C 28.769531 17.007812 28.304688 16.585938 28.261719 16.03125 C 28.210938 15.445312 28.644531 14.933594 29.226562 14.886719 L 32.945312 14.578125 C 33.523438 14.53125 34.035156 14.964844 34.085938 15.550781 C 34.132812 16.136719 33.699219 16.648438 33.117188 16.699219 L 29.402344 17.003906 C 29.371094 17.007812 29.34375 17.007812 29.3125 17.007812 Z M 29.3125 17.007812 "/><path style=" stroke:none;fill-rule:nonzero;fill:#f58a97;fill-opacity:1;" d="M 33.945312 13.117188 L 30.570312 10.238281 C 30.125 9.859375 30.070312 9.1875 30.449219 8.738281 C 30.828125 8.292969 31.492188 8.238281 31.9375 8.617188 L 35.3125 11.496094 C 35.757812 11.875 35.8125 12.546875 35.4375 12.992188 C 35.054688 13.441406 34.386719 13.496094 33.945312 13.117188 Z M 33.945312 13.117188 "/></g></svg>